<mxfile host="app.diagrams.net" agent="Mozilla/5.0 (Windows NT 10.0; Win64; x64) AppleWebKit/537.36 (KHTML, like Gecko) Chrome/136.0.0.0 Safari/537.36 Edg/136.0.0.0" version="27.0.9">
  <diagram id="XOx7M3hFjKDRTRTYQ7Px" name="第 1 页">
    <mxGraphModel dx="673" dy="423" grid="1" gridSize="10" guides="1" tooltips="1" connect="1" arrows="1" fold="0" page="1" pageScale="1" pageWidth="826" pageHeight="1169" background="none" math="1" shadow="0">
      <root>
        <mxCell id="0" />
        <mxCell id="1" parent="0" />
        <mxCell id="2nwuJbsm_z7F0_B4Owl_-17" value="" style="group" vertex="1" connectable="0" parent="1">
          <mxGeometry x="120" y="100" width="80" height="80" as="geometry" />
        </mxCell>
        <mxCell id="2nwuJbsm_z7F0_B4Owl_-18" value="" style="group" vertex="1" connectable="0" parent="2nwuJbsm_z7F0_B4Owl_-17">
          <mxGeometry width="80" height="80" as="geometry" />
        </mxCell>
        <mxCell id="2nwuJbsm_z7F0_B4Owl_-19" value="" style="whiteSpace=wrap;html=1;aspect=fixed;fillColor=light-dark(#eaf1df, #1F2F1E);strokeColor=none;" vertex="1" parent="2nwuJbsm_z7F0_B4Owl_-18">
          <mxGeometry width="80" height="80" as="geometry" />
        </mxCell>
        <mxCell id="2nwuJbsm_z7F0_B4Owl_-20" value="" style="endArrow=none;html=1;rounded=0;exitX=0;exitY=0.25;exitDx=0;exitDy=0;entryX=1;entryY=0.25;entryDx=0;entryDy=0;strokeWidth=2;strokeColor=#FFFFFF;" edge="1" parent="2nwuJbsm_z7F0_B4Owl_-18" source="2nwuJbsm_z7F0_B4Owl_-19" target="2nwuJbsm_z7F0_B4Owl_-19">
          <mxGeometry width="50" height="50" relative="1" as="geometry">
            <mxPoint x="30" y="250" as="sourcePoint" />
            <mxPoint x="80" y="200" as="targetPoint" />
          </mxGeometry>
        </mxCell>
        <mxCell id="2nwuJbsm_z7F0_B4Owl_-21" value="" style="endArrow=none;html=1;rounded=0;exitX=0;exitY=0.5;exitDx=0;exitDy=0;entryX=1;entryY=0.5;entryDx=0;entryDy=0;strokeColor=#FFFFFF;strokeWidth=2;" edge="1" parent="2nwuJbsm_z7F0_B4Owl_-18" source="2nwuJbsm_z7F0_B4Owl_-19" target="2nwuJbsm_z7F0_B4Owl_-19">
          <mxGeometry width="50" height="50" relative="1" as="geometry">
            <mxPoint x="110" y="190" as="sourcePoint" />
            <mxPoint x="190" y="190" as="targetPoint" />
          </mxGeometry>
        </mxCell>
        <mxCell id="2nwuJbsm_z7F0_B4Owl_-22" value="" style="endArrow=none;html=1;rounded=0;exitX=0;exitY=0.75;exitDx=0;exitDy=0;entryX=1;entryY=0.75;entryDx=0;entryDy=0;strokeWidth=2;strokeColor=#FFFFFF;" edge="1" parent="2nwuJbsm_z7F0_B4Owl_-18" source="2nwuJbsm_z7F0_B4Owl_-19" target="2nwuJbsm_z7F0_B4Owl_-19">
          <mxGeometry width="50" height="50" relative="1" as="geometry">
            <mxPoint x="150" y="120" as="sourcePoint" />
            <mxPoint x="230" y="120" as="targetPoint" />
          </mxGeometry>
        </mxCell>
        <mxCell id="2nwuJbsm_z7F0_B4Owl_-23" value="" style="endArrow=none;html=1;rounded=0;exitX=0.25;exitY=1;exitDx=0;exitDy=0;entryX=0.25;entryY=0;entryDx=0;entryDy=0;strokeWidth=2;strokeColor=#FFFFFF;" edge="1" parent="2nwuJbsm_z7F0_B4Owl_-18" source="2nwuJbsm_z7F0_B4Owl_-19" target="2nwuJbsm_z7F0_B4Owl_-19">
          <mxGeometry width="50" height="50" relative="1" as="geometry">
            <mxPoint x="120" y="120" as="sourcePoint" />
            <mxPoint x="200" y="120" as="targetPoint" />
          </mxGeometry>
        </mxCell>
        <mxCell id="2nwuJbsm_z7F0_B4Owl_-24" value="" style="endArrow=none;html=1;rounded=0;exitX=0.5;exitY=1;exitDx=0;exitDy=0;entryX=0.5;entryY=0;entryDx=0;entryDy=0;strokeWidth=2;strokeColor=#FFFFFF;" edge="1" parent="2nwuJbsm_z7F0_B4Owl_-18" source="2nwuJbsm_z7F0_B4Owl_-19" target="2nwuJbsm_z7F0_B4Owl_-19">
          <mxGeometry width="50" height="50" relative="1" as="geometry">
            <mxPoint x="180" y="110" as="sourcePoint" />
            <mxPoint x="260" y="110" as="targetPoint" />
          </mxGeometry>
        </mxCell>
        <mxCell id="2nwuJbsm_z7F0_B4Owl_-25" value="" style="endArrow=none;html=1;rounded=0;exitX=0.75;exitY=1;exitDx=0;exitDy=0;entryX=0.75;entryY=0;entryDx=0;entryDy=0;strokeWidth=2;strokeColor=#FFFFFF;" edge="1" parent="2nwuJbsm_z7F0_B4Owl_-18" source="2nwuJbsm_z7F0_B4Owl_-19" target="2nwuJbsm_z7F0_B4Owl_-19">
          <mxGeometry width="50" height="50" relative="1" as="geometry">
            <mxPoint x="190" y="90" as="sourcePoint" />
            <mxPoint x="270" y="90" as="targetPoint" />
          </mxGeometry>
        </mxCell>
        <mxCell id="2nwuJbsm_z7F0_B4Owl_-26" value="" style="endArrow=classic;html=1;rounded=0;endSize=4;fillColor=#d5e8d4;strokeColor=#82b366;" edge="1" parent="2nwuJbsm_z7F0_B4Owl_-18">
          <mxGeometry width="50" height="50" relative="1" as="geometry">
            <mxPoint x="10" y="10" as="sourcePoint" />
            <mxPoint x="30" y="10" as="targetPoint" />
          </mxGeometry>
        </mxCell>
        <mxCell id="2nwuJbsm_z7F0_B4Owl_-27" value="" style="endArrow=classic;html=1;rounded=0;endSize=4;fillColor=#d5e8d4;strokeColor=#82b366;" edge="1" parent="2nwuJbsm_z7F0_B4Owl_-18">
          <mxGeometry width="50" height="50" relative="1" as="geometry">
            <mxPoint x="30" y="10" as="sourcePoint" />
            <mxPoint x="50" y="10" as="targetPoint" />
          </mxGeometry>
        </mxCell>
        <mxCell id="2nwuJbsm_z7F0_B4Owl_-28" value="" style="endArrow=classic;html=1;rounded=0;endSize=4;fillColor=#d5e8d4;strokeColor=#82b366;" edge="1" parent="2nwuJbsm_z7F0_B4Owl_-18">
          <mxGeometry width="50" height="50" relative="1" as="geometry">
            <mxPoint x="50" y="10" as="sourcePoint" />
            <mxPoint x="70" y="10" as="targetPoint" />
          </mxGeometry>
        </mxCell>
        <mxCell id="2nwuJbsm_z7F0_B4Owl_-29" value="" style="endArrow=classic;html=1;rounded=0;endSize=4;fillColor=#d5e8d4;strokeColor=#82b366;" edge="1" parent="2nwuJbsm_z7F0_B4Owl_-18">
          <mxGeometry width="50" height="50" relative="1" as="geometry">
            <mxPoint x="10" y="50" as="sourcePoint" />
            <mxPoint x="30" y="50" as="targetPoint" />
          </mxGeometry>
        </mxCell>
        <mxCell id="2nwuJbsm_z7F0_B4Owl_-30" value="" style="endArrow=classic;html=1;rounded=0;endSize=4;fillColor=#d5e8d4;strokeColor=#82b366;" edge="1" parent="2nwuJbsm_z7F0_B4Owl_-18">
          <mxGeometry width="50" height="50" relative="1" as="geometry">
            <mxPoint x="30" y="50" as="sourcePoint" />
            <mxPoint x="50" y="50" as="targetPoint" />
          </mxGeometry>
        </mxCell>
        <mxCell id="2nwuJbsm_z7F0_B4Owl_-31" value="" style="endArrow=classic;html=1;rounded=0;endSize=4;fillColor=#d5e8d4;strokeColor=#82b366;" edge="1" parent="2nwuJbsm_z7F0_B4Owl_-18">
          <mxGeometry width="50" height="50" relative="1" as="geometry">
            <mxPoint x="50" y="50" as="sourcePoint" />
            <mxPoint x="70" y="50" as="targetPoint" />
          </mxGeometry>
        </mxCell>
        <mxCell id="2nwuJbsm_z7F0_B4Owl_-32" value="" style="endArrow=classic;html=1;rounded=0;endSize=4;fillColor=#d5e8d4;strokeColor=#82b366;" edge="1" parent="2nwuJbsm_z7F0_B4Owl_-18">
          <mxGeometry width="50" height="50" relative="1" as="geometry">
            <mxPoint x="50" y="30" as="sourcePoint" />
            <mxPoint x="70" y="30" as="targetPoint" />
          </mxGeometry>
        </mxCell>
        <mxCell id="2nwuJbsm_z7F0_B4Owl_-33" value="" style="endArrow=classic;html=1;rounded=0;endSize=4;fillColor=#d5e8d4;strokeColor=#82b366;" edge="1" parent="2nwuJbsm_z7F0_B4Owl_-18">
          <mxGeometry width="50" height="50" relative="1" as="geometry">
            <mxPoint x="30" y="30" as="sourcePoint" />
            <mxPoint x="50" y="30" as="targetPoint" />
          </mxGeometry>
        </mxCell>
        <mxCell id="2nwuJbsm_z7F0_B4Owl_-34" value="" style="endArrow=classic;html=1;rounded=0;endSize=4;fillColor=#d5e8d4;strokeColor=#82b366;" edge="1" parent="2nwuJbsm_z7F0_B4Owl_-18">
          <mxGeometry width="50" height="50" relative="1" as="geometry">
            <mxPoint x="10" y="30" as="sourcePoint" />
            <mxPoint x="30" y="30" as="targetPoint" />
          </mxGeometry>
        </mxCell>
        <mxCell id="2nwuJbsm_z7F0_B4Owl_-35" value="" style="endArrow=classic;html=1;rounded=0;endSize=4;fillColor=#d5e8d4;strokeColor=#82b366;" edge="1" parent="2nwuJbsm_z7F0_B4Owl_-18">
          <mxGeometry width="50" height="50" relative="1" as="geometry">
            <mxPoint x="50" y="70" as="sourcePoint" />
            <mxPoint x="70" y="70" as="targetPoint" />
          </mxGeometry>
        </mxCell>
        <mxCell id="2nwuJbsm_z7F0_B4Owl_-36" value="" style="endArrow=classic;html=1;rounded=0;endSize=4;fillColor=#d5e8d4;strokeColor=#82b366;" edge="1" parent="2nwuJbsm_z7F0_B4Owl_-18">
          <mxGeometry width="50" height="50" relative="1" as="geometry">
            <mxPoint x="30" y="70" as="sourcePoint" />
            <mxPoint x="50" y="70" as="targetPoint" />
          </mxGeometry>
        </mxCell>
        <mxCell id="2nwuJbsm_z7F0_B4Owl_-37" value="" style="endArrow=classic;html=1;rounded=0;endSize=4;fillColor=#d5e8d4;strokeColor=#82b366;" edge="1" parent="2nwuJbsm_z7F0_B4Owl_-18">
          <mxGeometry width="50" height="50" relative="1" as="geometry">
            <mxPoint x="10" y="70" as="sourcePoint" />
            <mxPoint x="30" y="70" as="targetPoint" />
          </mxGeometry>
        </mxCell>
        <mxCell id="2nwuJbsm_z7F0_B4Owl_-38" value="" style="endArrow=none;dashed=1;html=1;rounded=0;fillColor=#d5e8d4;strokeColor=#82b366;" edge="1" parent="2nwuJbsm_z7F0_B4Owl_-17">
          <mxGeometry width="50" height="50" relative="1" as="geometry">
            <mxPoint x="10" y="30" as="sourcePoint" />
            <mxPoint x="70" y="10" as="targetPoint" />
          </mxGeometry>
        </mxCell>
        <mxCell id="2nwuJbsm_z7F0_B4Owl_-39" value="" style="endArrow=none;dashed=1;html=1;rounded=0;fillColor=#d5e8d4;strokeColor=#82b366;" edge="1" parent="2nwuJbsm_z7F0_B4Owl_-17">
          <mxGeometry width="50" height="50" relative="1" as="geometry">
            <mxPoint x="10" y="50" as="sourcePoint" />
            <mxPoint x="70" y="30" as="targetPoint" />
          </mxGeometry>
        </mxCell>
        <mxCell id="2nwuJbsm_z7F0_B4Owl_-40" value="" style="endArrow=none;dashed=1;html=1;rounded=0;fillColor=#d5e8d4;strokeColor=#82b366;" edge="1" parent="2nwuJbsm_z7F0_B4Owl_-17">
          <mxGeometry width="50" height="50" relative="1" as="geometry">
            <mxPoint x="10" y="70" as="sourcePoint" />
            <mxPoint x="70" y="50" as="targetPoint" />
          </mxGeometry>
        </mxCell>
        <mxCell id="2nwuJbsm_z7F0_B4Owl_-41" value="" style="group;flipH=0;direction=north;" vertex="1" connectable="0" parent="1">
          <mxGeometry x="333" y="100" width="80" height="80" as="geometry" />
        </mxCell>
        <mxCell id="2nwuJbsm_z7F0_B4Owl_-42" value="" style="group;direction=north;" vertex="1" connectable="0" parent="2nwuJbsm_z7F0_B4Owl_-41">
          <mxGeometry width="80" height="80" as="geometry" />
        </mxCell>
        <mxCell id="2nwuJbsm_z7F0_B4Owl_-43" value="" style="whiteSpace=wrap;html=1;aspect=fixed;fillColor=light-dark(#eaf1df, #1F2F1E);strokeColor=none;direction=north;" vertex="1" parent="2nwuJbsm_z7F0_B4Owl_-42">
          <mxGeometry width="80" height="80" as="geometry" />
        </mxCell>
        <mxCell id="2nwuJbsm_z7F0_B4Owl_-44" value="" style="endArrow=none;html=1;rounded=0;exitX=1;exitY=0.25;exitDx=0;exitDy=0;entryX=0;entryY=0.25;entryDx=0;entryDy=0;strokeWidth=2;strokeColor=#FFFFFF;" edge="1" parent="2nwuJbsm_z7F0_B4Owl_-42" source="2nwuJbsm_z7F0_B4Owl_-43" target="2nwuJbsm_z7F0_B4Owl_-43">
          <mxGeometry width="50" height="50" relative="1" as="geometry">
            <mxPoint x="80" y="200" as="sourcePoint" />
            <mxPoint x="30" y="250" as="targetPoint" />
          </mxGeometry>
        </mxCell>
        <mxCell id="2nwuJbsm_z7F0_B4Owl_-45" value="" style="endArrow=none;html=1;rounded=0;exitX=1;exitY=0.5;exitDx=0;exitDy=0;entryX=0;entryY=0.5;entryDx=0;entryDy=0;strokeColor=#FFFFFF;strokeWidth=2;" edge="1" parent="2nwuJbsm_z7F0_B4Owl_-42" source="2nwuJbsm_z7F0_B4Owl_-43" target="2nwuJbsm_z7F0_B4Owl_-43">
          <mxGeometry width="50" height="50" relative="1" as="geometry">
            <mxPoint x="190" y="190" as="sourcePoint" />
            <mxPoint x="110" y="190" as="targetPoint" />
          </mxGeometry>
        </mxCell>
        <mxCell id="2nwuJbsm_z7F0_B4Owl_-46" value="" style="endArrow=none;html=1;rounded=0;exitX=1;exitY=0.75;exitDx=0;exitDy=0;entryX=0;entryY=0.75;entryDx=0;entryDy=0;strokeWidth=2;strokeColor=#FFFFFF;" edge="1" parent="2nwuJbsm_z7F0_B4Owl_-42" source="2nwuJbsm_z7F0_B4Owl_-43" target="2nwuJbsm_z7F0_B4Owl_-43">
          <mxGeometry width="50" height="50" relative="1" as="geometry">
            <mxPoint x="230" y="120" as="sourcePoint" />
            <mxPoint x="150" y="120" as="targetPoint" />
          </mxGeometry>
        </mxCell>
        <mxCell id="2nwuJbsm_z7F0_B4Owl_-47" value="" style="endArrow=none;html=1;rounded=0;exitX=0.25;exitY=0;exitDx=0;exitDy=0;entryX=0.25;entryY=1;entryDx=0;entryDy=0;strokeWidth=2;strokeColor=#FFFFFF;" edge="1" parent="2nwuJbsm_z7F0_B4Owl_-42" source="2nwuJbsm_z7F0_B4Owl_-43" target="2nwuJbsm_z7F0_B4Owl_-43">
          <mxGeometry width="50" height="50" relative="1" as="geometry">
            <mxPoint x="200" y="120" as="sourcePoint" />
            <mxPoint x="120" y="120" as="targetPoint" />
          </mxGeometry>
        </mxCell>
        <mxCell id="2nwuJbsm_z7F0_B4Owl_-48" value="" style="endArrow=none;html=1;rounded=0;exitX=0.5;exitY=0;exitDx=0;exitDy=0;entryX=0.5;entryY=1;entryDx=0;entryDy=0;strokeWidth=2;strokeColor=#FFFFFF;" edge="1" parent="2nwuJbsm_z7F0_B4Owl_-42" source="2nwuJbsm_z7F0_B4Owl_-43" target="2nwuJbsm_z7F0_B4Owl_-43">
          <mxGeometry width="50" height="50" relative="1" as="geometry">
            <mxPoint x="260" y="110" as="sourcePoint" />
            <mxPoint x="180" y="110" as="targetPoint" />
          </mxGeometry>
        </mxCell>
        <mxCell id="2nwuJbsm_z7F0_B4Owl_-49" value="" style="endArrow=none;html=1;rounded=0;exitX=0.75;exitY=0;exitDx=0;exitDy=0;entryX=0.75;entryY=1;entryDx=0;entryDy=0;strokeWidth=2;strokeColor=#FFFFFF;" edge="1" parent="2nwuJbsm_z7F0_B4Owl_-42" source="2nwuJbsm_z7F0_B4Owl_-43" target="2nwuJbsm_z7F0_B4Owl_-43">
          <mxGeometry width="50" height="50" relative="1" as="geometry">
            <mxPoint x="270" y="90" as="sourcePoint" />
            <mxPoint x="190" y="90" as="targetPoint" />
          </mxGeometry>
        </mxCell>
        <mxCell id="2nwuJbsm_z7F0_B4Owl_-50" value="" style="endArrow=classic;html=1;rounded=0;endSize=4;fillColor=#d5e8d4;strokeColor=#82b366;" edge="1" parent="2nwuJbsm_z7F0_B4Owl_-42">
          <mxGeometry width="50" height="50" relative="1" as="geometry">
            <mxPoint x="30" y="10" as="sourcePoint" />
            <mxPoint x="10" y="10" as="targetPoint" />
          </mxGeometry>
        </mxCell>
        <mxCell id="2nwuJbsm_z7F0_B4Owl_-51" value="" style="endArrow=classic;html=1;rounded=0;endSize=4;fillColor=#d5e8d4;strokeColor=#82b366;" edge="1" parent="2nwuJbsm_z7F0_B4Owl_-42">
          <mxGeometry width="50" height="50" relative="1" as="geometry">
            <mxPoint x="50" y="10" as="sourcePoint" />
            <mxPoint x="30" y="10" as="targetPoint" />
          </mxGeometry>
        </mxCell>
        <mxCell id="2nwuJbsm_z7F0_B4Owl_-52" value="" style="endArrow=classic;html=1;rounded=0;endSize=4;fillColor=#d5e8d4;strokeColor=#82b366;" edge="1" parent="2nwuJbsm_z7F0_B4Owl_-42">
          <mxGeometry width="50" height="50" relative="1" as="geometry">
            <mxPoint x="70" y="10" as="sourcePoint" />
            <mxPoint x="50" y="10" as="targetPoint" />
          </mxGeometry>
        </mxCell>
        <mxCell id="2nwuJbsm_z7F0_B4Owl_-53" value="" style="endArrow=classic;html=1;rounded=0;endSize=4;fillColor=#d5e8d4;strokeColor=#82b366;" edge="1" parent="2nwuJbsm_z7F0_B4Owl_-42">
          <mxGeometry width="50" height="50" relative="1" as="geometry">
            <mxPoint x="30" y="50" as="sourcePoint" />
            <mxPoint x="10" y="50" as="targetPoint" />
          </mxGeometry>
        </mxCell>
        <mxCell id="2nwuJbsm_z7F0_B4Owl_-54" value="" style="endArrow=classic;html=1;rounded=0;endSize=4;fillColor=#d5e8d4;strokeColor=#82b366;" edge="1" parent="2nwuJbsm_z7F0_B4Owl_-42">
          <mxGeometry width="50" height="50" relative="1" as="geometry">
            <mxPoint x="50" y="50" as="sourcePoint" />
            <mxPoint x="30" y="50" as="targetPoint" />
          </mxGeometry>
        </mxCell>
        <mxCell id="2nwuJbsm_z7F0_B4Owl_-55" value="" style="endArrow=classic;html=1;rounded=0;endSize=4;fillColor=#d5e8d4;strokeColor=#82b366;" edge="1" parent="2nwuJbsm_z7F0_B4Owl_-42">
          <mxGeometry width="50" height="50" relative="1" as="geometry">
            <mxPoint x="70" y="50" as="sourcePoint" />
            <mxPoint x="50" y="50" as="targetPoint" />
          </mxGeometry>
        </mxCell>
        <mxCell id="2nwuJbsm_z7F0_B4Owl_-56" value="" style="endArrow=classic;html=1;rounded=0;endSize=4;fillColor=#d5e8d4;strokeColor=#82b366;" edge="1" parent="2nwuJbsm_z7F0_B4Owl_-42">
          <mxGeometry width="50" height="50" relative="1" as="geometry">
            <mxPoint x="70" y="30" as="sourcePoint" />
            <mxPoint x="50" y="30" as="targetPoint" />
          </mxGeometry>
        </mxCell>
        <mxCell id="2nwuJbsm_z7F0_B4Owl_-57" value="" style="endArrow=classic;html=1;rounded=0;endSize=4;fillColor=#d5e8d4;strokeColor=#82b366;" edge="1" parent="2nwuJbsm_z7F0_B4Owl_-42">
          <mxGeometry width="50" height="50" relative="1" as="geometry">
            <mxPoint x="50" y="30" as="sourcePoint" />
            <mxPoint x="30" y="30" as="targetPoint" />
          </mxGeometry>
        </mxCell>
        <mxCell id="2nwuJbsm_z7F0_B4Owl_-58" value="" style="endArrow=classic;html=1;rounded=0;endSize=4;fillColor=#d5e8d4;strokeColor=#82b366;" edge="1" parent="2nwuJbsm_z7F0_B4Owl_-42">
          <mxGeometry width="50" height="50" relative="1" as="geometry">
            <mxPoint x="30" y="30" as="sourcePoint" />
            <mxPoint x="10" y="30" as="targetPoint" />
          </mxGeometry>
        </mxCell>
        <mxCell id="2nwuJbsm_z7F0_B4Owl_-59" value="" style="endArrow=classic;html=1;rounded=0;endSize=4;fillColor=#d5e8d4;strokeColor=#82b366;" edge="1" parent="2nwuJbsm_z7F0_B4Owl_-42">
          <mxGeometry width="50" height="50" relative="1" as="geometry">
            <mxPoint x="70" y="70" as="sourcePoint" />
            <mxPoint x="50" y="70" as="targetPoint" />
          </mxGeometry>
        </mxCell>
        <mxCell id="2nwuJbsm_z7F0_B4Owl_-60" value="" style="endArrow=classic;html=1;rounded=0;endSize=4;fillColor=#d5e8d4;strokeColor=#82b366;" edge="1" parent="2nwuJbsm_z7F0_B4Owl_-42">
          <mxGeometry width="50" height="50" relative="1" as="geometry">
            <mxPoint x="50" y="70" as="sourcePoint" />
            <mxPoint x="30" y="70" as="targetPoint" />
          </mxGeometry>
        </mxCell>
        <mxCell id="2nwuJbsm_z7F0_B4Owl_-61" value="" style="endArrow=classic;html=1;rounded=0;endSize=4;fillColor=#d5e8d4;strokeColor=#82b366;" edge="1" parent="2nwuJbsm_z7F0_B4Owl_-42">
          <mxGeometry width="50" height="50" relative="1" as="geometry">
            <mxPoint x="30" y="70" as="sourcePoint" />
            <mxPoint x="10" y="70" as="targetPoint" />
          </mxGeometry>
        </mxCell>
        <mxCell id="2nwuJbsm_z7F0_B4Owl_-62" value="" style="endArrow=none;dashed=1;html=1;rounded=0;fillColor=#d5e8d4;strokeColor=#82b366;" edge="1" parent="2nwuJbsm_z7F0_B4Owl_-41">
          <mxGeometry width="50" height="50" relative="1" as="geometry">
            <mxPoint x="70" y="10" as="sourcePoint" />
            <mxPoint x="10" y="30" as="targetPoint" />
          </mxGeometry>
        </mxCell>
        <mxCell id="2nwuJbsm_z7F0_B4Owl_-63" value="" style="endArrow=none;dashed=1;html=1;rounded=0;fillColor=#d5e8d4;strokeColor=#82b366;" edge="1" parent="2nwuJbsm_z7F0_B4Owl_-41">
          <mxGeometry width="50" height="50" relative="1" as="geometry">
            <mxPoint x="70" y="30" as="sourcePoint" />
            <mxPoint x="10" y="50" as="targetPoint" />
          </mxGeometry>
        </mxCell>
        <mxCell id="2nwuJbsm_z7F0_B4Owl_-64" value="" style="endArrow=none;dashed=1;html=1;rounded=0;fillColor=#d5e8d4;strokeColor=#82b366;" edge="1" parent="2nwuJbsm_z7F0_B4Owl_-41">
          <mxGeometry width="50" height="50" relative="1" as="geometry">
            <mxPoint x="70" y="50" as="sourcePoint" />
            <mxPoint x="10" y="70" as="targetPoint" />
          </mxGeometry>
        </mxCell>
        <mxCell id="2nwuJbsm_z7F0_B4Owl_-89" value="" style="group" vertex="1" connectable="0" parent="1">
          <mxGeometry x="240" y="100" width="80" height="80" as="geometry" />
        </mxCell>
        <mxCell id="2nwuJbsm_z7F0_B4Owl_-90" value="" style="group" vertex="1" connectable="0" parent="2nwuJbsm_z7F0_B4Owl_-89">
          <mxGeometry width="80" height="80" as="geometry" />
        </mxCell>
        <mxCell id="2nwuJbsm_z7F0_B4Owl_-91" value="" style="whiteSpace=wrap;html=1;aspect=fixed;fillColor=light-dark(#eaf1df, #1F2F1E);strokeColor=none;" vertex="1" parent="2nwuJbsm_z7F0_B4Owl_-90">
          <mxGeometry width="80" height="80" as="geometry" />
        </mxCell>
        <mxCell id="2nwuJbsm_z7F0_B4Owl_-92" value="" style="endArrow=none;html=1;rounded=0;exitX=0;exitY=0.25;exitDx=0;exitDy=0;entryX=1;entryY=0.25;entryDx=0;entryDy=0;strokeWidth=2;strokeColor=#FFFFFF;" edge="1" parent="2nwuJbsm_z7F0_B4Owl_-90" source="2nwuJbsm_z7F0_B4Owl_-91" target="2nwuJbsm_z7F0_B4Owl_-91">
          <mxGeometry width="50" height="50" relative="1" as="geometry">
            <mxPoint x="30" y="250" as="sourcePoint" />
            <mxPoint x="80" y="200" as="targetPoint" />
          </mxGeometry>
        </mxCell>
        <mxCell id="2nwuJbsm_z7F0_B4Owl_-93" value="" style="endArrow=none;html=1;rounded=0;exitX=0;exitY=0.5;exitDx=0;exitDy=0;entryX=1;entryY=0.5;entryDx=0;entryDy=0;strokeColor=#FFFFFF;strokeWidth=2;" edge="1" parent="2nwuJbsm_z7F0_B4Owl_-90" source="2nwuJbsm_z7F0_B4Owl_-91" target="2nwuJbsm_z7F0_B4Owl_-91">
          <mxGeometry width="50" height="50" relative="1" as="geometry">
            <mxPoint x="110" y="190" as="sourcePoint" />
            <mxPoint x="190" y="190" as="targetPoint" />
          </mxGeometry>
        </mxCell>
        <mxCell id="2nwuJbsm_z7F0_B4Owl_-94" value="" style="endArrow=none;html=1;rounded=0;exitX=0;exitY=0.75;exitDx=0;exitDy=0;entryX=1;entryY=0.75;entryDx=0;entryDy=0;strokeWidth=2;strokeColor=#FFFFFF;" edge="1" parent="2nwuJbsm_z7F0_B4Owl_-90" source="2nwuJbsm_z7F0_B4Owl_-91" target="2nwuJbsm_z7F0_B4Owl_-91">
          <mxGeometry width="50" height="50" relative="1" as="geometry">
            <mxPoint x="150" y="120" as="sourcePoint" />
            <mxPoint x="230" y="120" as="targetPoint" />
          </mxGeometry>
        </mxCell>
        <mxCell id="2nwuJbsm_z7F0_B4Owl_-95" value="" style="endArrow=none;html=1;rounded=0;exitX=0.25;exitY=1;exitDx=0;exitDy=0;entryX=0.25;entryY=0;entryDx=0;entryDy=0;strokeWidth=2;strokeColor=#FFFFFF;" edge="1" parent="2nwuJbsm_z7F0_B4Owl_-90" source="2nwuJbsm_z7F0_B4Owl_-91" target="2nwuJbsm_z7F0_B4Owl_-91">
          <mxGeometry width="50" height="50" relative="1" as="geometry">
            <mxPoint x="120" y="120" as="sourcePoint" />
            <mxPoint x="200" y="120" as="targetPoint" />
          </mxGeometry>
        </mxCell>
        <mxCell id="2nwuJbsm_z7F0_B4Owl_-96" value="" style="endArrow=none;html=1;rounded=0;exitX=0.5;exitY=1;exitDx=0;exitDy=0;entryX=0.5;entryY=0;entryDx=0;entryDy=0;strokeWidth=2;strokeColor=#FFFFFF;" edge="1" parent="2nwuJbsm_z7F0_B4Owl_-90" source="2nwuJbsm_z7F0_B4Owl_-91" target="2nwuJbsm_z7F0_B4Owl_-91">
          <mxGeometry width="50" height="50" relative="1" as="geometry">
            <mxPoint x="180" y="110" as="sourcePoint" />
            <mxPoint x="260" y="110" as="targetPoint" />
          </mxGeometry>
        </mxCell>
        <mxCell id="2nwuJbsm_z7F0_B4Owl_-97" value="" style="endArrow=none;html=1;rounded=0;exitX=0.75;exitY=1;exitDx=0;exitDy=0;entryX=0.75;entryY=0;entryDx=0;entryDy=0;strokeWidth=2;strokeColor=#FFFFFF;" edge="1" parent="2nwuJbsm_z7F0_B4Owl_-90" source="2nwuJbsm_z7F0_B4Owl_-91" target="2nwuJbsm_z7F0_B4Owl_-91">
          <mxGeometry width="50" height="50" relative="1" as="geometry">
            <mxPoint x="190" y="90" as="sourcePoint" />
            <mxPoint x="270" y="90" as="targetPoint" />
          </mxGeometry>
        </mxCell>
        <mxCell id="2nwuJbsm_z7F0_B4Owl_-98" value="" style="endArrow=classic;html=1;rounded=0;endSize=4;fillColor=#d5e8d4;strokeColor=#82b366;" edge="1" parent="2nwuJbsm_z7F0_B4Owl_-90">
          <mxGeometry width="50" height="50" relative="1" as="geometry">
            <mxPoint x="10" y="10" as="sourcePoint" />
            <mxPoint x="30" y="10" as="targetPoint" />
          </mxGeometry>
        </mxCell>
        <mxCell id="2nwuJbsm_z7F0_B4Owl_-99" value="" style="endArrow=classic;html=1;rounded=0;endSize=4;fillColor=#d5e8d4;strokeColor=#82b366;" edge="1" parent="2nwuJbsm_z7F0_B4Owl_-90">
          <mxGeometry width="50" height="50" relative="1" as="geometry">
            <mxPoint x="30" y="10" as="sourcePoint" />
            <mxPoint x="50" y="10" as="targetPoint" />
          </mxGeometry>
        </mxCell>
        <mxCell id="2nwuJbsm_z7F0_B4Owl_-100" value="" style="endArrow=classic;html=1;rounded=0;endSize=4;fillColor=#d5e8d4;strokeColor=#82b366;" edge="1" parent="2nwuJbsm_z7F0_B4Owl_-90">
          <mxGeometry width="50" height="50" relative="1" as="geometry">
            <mxPoint x="50" y="10" as="sourcePoint" />
            <mxPoint x="70" y="10" as="targetPoint" />
          </mxGeometry>
        </mxCell>
        <mxCell id="2nwuJbsm_z7F0_B4Owl_-101" value="" style="endArrow=classic;html=1;rounded=0;endSize=4;fillColor=#d5e8d4;strokeColor=#82b366;" edge="1" parent="2nwuJbsm_z7F0_B4Owl_-90">
          <mxGeometry width="50" height="50" relative="1" as="geometry">
            <mxPoint x="10" y="50" as="sourcePoint" />
            <mxPoint x="30" y="50" as="targetPoint" />
          </mxGeometry>
        </mxCell>
        <mxCell id="2nwuJbsm_z7F0_B4Owl_-102" value="" style="endArrow=classic;html=1;rounded=0;endSize=4;fillColor=#d5e8d4;strokeColor=#82b366;" edge="1" parent="2nwuJbsm_z7F0_B4Owl_-90">
          <mxGeometry width="50" height="50" relative="1" as="geometry">
            <mxPoint x="30" y="50" as="sourcePoint" />
            <mxPoint x="50" y="50" as="targetPoint" />
          </mxGeometry>
        </mxCell>
        <mxCell id="2nwuJbsm_z7F0_B4Owl_-103" value="" style="endArrow=classic;html=1;rounded=0;endSize=4;fillColor=#d5e8d4;strokeColor=#82b366;" edge="1" parent="2nwuJbsm_z7F0_B4Owl_-90">
          <mxGeometry width="50" height="50" relative="1" as="geometry">
            <mxPoint x="50" y="50" as="sourcePoint" />
            <mxPoint x="70" y="50" as="targetPoint" />
          </mxGeometry>
        </mxCell>
        <mxCell id="2nwuJbsm_z7F0_B4Owl_-104" value="" style="endArrow=classic;html=1;rounded=0;endSize=4;fillColor=#d5e8d4;strokeColor=#82b366;" edge="1" parent="2nwuJbsm_z7F0_B4Owl_-90">
          <mxGeometry width="50" height="50" relative="1" as="geometry">
            <mxPoint x="50" y="30" as="sourcePoint" />
            <mxPoint x="70" y="30" as="targetPoint" />
          </mxGeometry>
        </mxCell>
        <mxCell id="2nwuJbsm_z7F0_B4Owl_-105" value="" style="endArrow=classic;html=1;rounded=0;endSize=4;fillColor=#d5e8d4;strokeColor=#82b366;" edge="1" parent="2nwuJbsm_z7F0_B4Owl_-90">
          <mxGeometry width="50" height="50" relative="1" as="geometry">
            <mxPoint x="30" y="30" as="sourcePoint" />
            <mxPoint x="50" y="30" as="targetPoint" />
          </mxGeometry>
        </mxCell>
        <mxCell id="2nwuJbsm_z7F0_B4Owl_-106" value="" style="endArrow=classic;html=1;rounded=0;endSize=4;fillColor=#d5e8d4;strokeColor=#82b366;" edge="1" parent="2nwuJbsm_z7F0_B4Owl_-90">
          <mxGeometry width="50" height="50" relative="1" as="geometry">
            <mxPoint x="10" y="30" as="sourcePoint" />
            <mxPoint x="30" y="30" as="targetPoint" />
          </mxGeometry>
        </mxCell>
        <mxCell id="2nwuJbsm_z7F0_B4Owl_-107" value="" style="endArrow=classic;html=1;rounded=0;endSize=4;fillColor=#d5e8d4;strokeColor=#82b366;" edge="1" parent="2nwuJbsm_z7F0_B4Owl_-90">
          <mxGeometry width="50" height="50" relative="1" as="geometry">
            <mxPoint x="50" y="70" as="sourcePoint" />
            <mxPoint x="70" y="70" as="targetPoint" />
          </mxGeometry>
        </mxCell>
        <mxCell id="2nwuJbsm_z7F0_B4Owl_-108" value="" style="endArrow=classic;html=1;rounded=0;endSize=4;fillColor=#d5e8d4;strokeColor=#82b366;" edge="1" parent="2nwuJbsm_z7F0_B4Owl_-90">
          <mxGeometry width="50" height="50" relative="1" as="geometry">
            <mxPoint x="30" y="70" as="sourcePoint" />
            <mxPoint x="50" y="70" as="targetPoint" />
          </mxGeometry>
        </mxCell>
        <mxCell id="2nwuJbsm_z7F0_B4Owl_-109" value="" style="endArrow=classic;html=1;rounded=0;endSize=4;fillColor=#d5e8d4;strokeColor=#82b366;" edge="1" parent="2nwuJbsm_z7F0_B4Owl_-90">
          <mxGeometry width="50" height="50" relative="1" as="geometry">
            <mxPoint x="10" y="70" as="sourcePoint" />
            <mxPoint x="30" y="70" as="targetPoint" />
          </mxGeometry>
        </mxCell>
        <mxCell id="2nwuJbsm_z7F0_B4Owl_-110" value="" style="endArrow=none;dashed=1;html=1;rounded=0;fillColor=#d5e8d4;strokeColor=#82b366;" edge="1" parent="2nwuJbsm_z7F0_B4Owl_-89">
          <mxGeometry width="50" height="50" relative="1" as="geometry">
            <mxPoint x="10" y="30" as="sourcePoint" />
            <mxPoint x="70" y="10" as="targetPoint" />
          </mxGeometry>
        </mxCell>
        <mxCell id="2nwuJbsm_z7F0_B4Owl_-111" value="" style="endArrow=none;dashed=1;html=1;rounded=0;fillColor=#d5e8d4;strokeColor=#82b366;" edge="1" parent="2nwuJbsm_z7F0_B4Owl_-89">
          <mxGeometry width="50" height="50" relative="1" as="geometry">
            <mxPoint x="10" y="50" as="sourcePoint" />
            <mxPoint x="70" y="30" as="targetPoint" />
          </mxGeometry>
        </mxCell>
        <mxCell id="2nwuJbsm_z7F0_B4Owl_-112" value="" style="endArrow=none;dashed=1;html=1;rounded=0;fillColor=#d5e8d4;strokeColor=#82b366;" edge="1" parent="2nwuJbsm_z7F0_B4Owl_-89">
          <mxGeometry width="50" height="50" relative="1" as="geometry">
            <mxPoint x="10" y="70" as="sourcePoint" />
            <mxPoint x="70" y="50" as="targetPoint" />
          </mxGeometry>
        </mxCell>
        <mxCell id="2nwuJbsm_z7F0_B4Owl_-113" value="" style="group;flipH=0;direction=north;" vertex="1" connectable="0" parent="1">
          <mxGeometry x="540" y="100" width="80" height="80" as="geometry" />
        </mxCell>
        <mxCell id="2nwuJbsm_z7F0_B4Owl_-114" value="" style="group;direction=north;" vertex="1" connectable="0" parent="2nwuJbsm_z7F0_B4Owl_-113">
          <mxGeometry width="80" height="80" as="geometry" />
        </mxCell>
        <mxCell id="2nwuJbsm_z7F0_B4Owl_-115" value="" style="whiteSpace=wrap;html=1;aspect=fixed;fillColor=light-dark(#eaf1df, #1F2F1E);strokeColor=none;direction=north;" vertex="1" parent="2nwuJbsm_z7F0_B4Owl_-114">
          <mxGeometry width="80" height="80" as="geometry" />
        </mxCell>
        <mxCell id="2nwuJbsm_z7F0_B4Owl_-116" value="" style="endArrow=none;html=1;rounded=0;exitX=1;exitY=0.25;exitDx=0;exitDy=0;entryX=0;entryY=0.25;entryDx=0;entryDy=0;strokeWidth=2;strokeColor=#FFFFFF;" edge="1" parent="2nwuJbsm_z7F0_B4Owl_-114" source="2nwuJbsm_z7F0_B4Owl_-115" target="2nwuJbsm_z7F0_B4Owl_-115">
          <mxGeometry width="50" height="50" relative="1" as="geometry">
            <mxPoint x="80" y="200" as="sourcePoint" />
            <mxPoint x="30" y="250" as="targetPoint" />
          </mxGeometry>
        </mxCell>
        <mxCell id="2nwuJbsm_z7F0_B4Owl_-117" value="" style="endArrow=none;html=1;rounded=0;exitX=1;exitY=0.5;exitDx=0;exitDy=0;entryX=0;entryY=0.5;entryDx=0;entryDy=0;strokeColor=#FFFFFF;strokeWidth=2;" edge="1" parent="2nwuJbsm_z7F0_B4Owl_-114" source="2nwuJbsm_z7F0_B4Owl_-115" target="2nwuJbsm_z7F0_B4Owl_-115">
          <mxGeometry width="50" height="50" relative="1" as="geometry">
            <mxPoint x="190" y="190" as="sourcePoint" />
            <mxPoint x="110" y="190" as="targetPoint" />
          </mxGeometry>
        </mxCell>
        <mxCell id="2nwuJbsm_z7F0_B4Owl_-118" value="" style="endArrow=none;html=1;rounded=0;exitX=1;exitY=0.75;exitDx=0;exitDy=0;entryX=0;entryY=0.75;entryDx=0;entryDy=0;strokeWidth=2;strokeColor=#FFFFFF;" edge="1" parent="2nwuJbsm_z7F0_B4Owl_-114" source="2nwuJbsm_z7F0_B4Owl_-115" target="2nwuJbsm_z7F0_B4Owl_-115">
          <mxGeometry width="50" height="50" relative="1" as="geometry">
            <mxPoint x="230" y="120" as="sourcePoint" />
            <mxPoint x="150" y="120" as="targetPoint" />
          </mxGeometry>
        </mxCell>
        <mxCell id="2nwuJbsm_z7F0_B4Owl_-119" value="" style="endArrow=none;html=1;rounded=0;exitX=0.25;exitY=0;exitDx=0;exitDy=0;entryX=0.25;entryY=1;entryDx=0;entryDy=0;strokeWidth=2;strokeColor=#FFFFFF;" edge="1" parent="2nwuJbsm_z7F0_B4Owl_-114" source="2nwuJbsm_z7F0_B4Owl_-115" target="2nwuJbsm_z7F0_B4Owl_-115">
          <mxGeometry width="50" height="50" relative="1" as="geometry">
            <mxPoint x="200" y="120" as="sourcePoint" />
            <mxPoint x="120" y="120" as="targetPoint" />
          </mxGeometry>
        </mxCell>
        <mxCell id="2nwuJbsm_z7F0_B4Owl_-120" value="" style="endArrow=none;html=1;rounded=0;exitX=0.5;exitY=0;exitDx=0;exitDy=0;entryX=0.5;entryY=1;entryDx=0;entryDy=0;strokeWidth=2;strokeColor=#FFFFFF;" edge="1" parent="2nwuJbsm_z7F0_B4Owl_-114" source="2nwuJbsm_z7F0_B4Owl_-115" target="2nwuJbsm_z7F0_B4Owl_-115">
          <mxGeometry width="50" height="50" relative="1" as="geometry">
            <mxPoint x="260" y="110" as="sourcePoint" />
            <mxPoint x="180" y="110" as="targetPoint" />
          </mxGeometry>
        </mxCell>
        <mxCell id="2nwuJbsm_z7F0_B4Owl_-121" value="" style="endArrow=none;html=1;rounded=0;exitX=0.75;exitY=0;exitDx=0;exitDy=0;entryX=0.75;entryY=1;entryDx=0;entryDy=0;strokeWidth=2;strokeColor=#FFFFFF;" edge="1" parent="2nwuJbsm_z7F0_B4Owl_-114" source="2nwuJbsm_z7F0_B4Owl_-115" target="2nwuJbsm_z7F0_B4Owl_-115">
          <mxGeometry width="50" height="50" relative="1" as="geometry">
            <mxPoint x="270" y="90" as="sourcePoint" />
            <mxPoint x="190" y="90" as="targetPoint" />
          </mxGeometry>
        </mxCell>
        <mxCell id="2nwuJbsm_z7F0_B4Owl_-122" value="" style="endArrow=classic;html=1;rounded=0;endSize=4;fillColor=#d5e8d4;strokeColor=#82b366;" edge="1" parent="2nwuJbsm_z7F0_B4Owl_-114">
          <mxGeometry width="50" height="50" relative="1" as="geometry">
            <mxPoint x="30" y="10" as="sourcePoint" />
            <mxPoint x="10" y="10" as="targetPoint" />
          </mxGeometry>
        </mxCell>
        <mxCell id="2nwuJbsm_z7F0_B4Owl_-123" value="" style="endArrow=classic;html=1;rounded=0;endSize=4;fillColor=#d5e8d4;strokeColor=#82b366;" edge="1" parent="2nwuJbsm_z7F0_B4Owl_-114">
          <mxGeometry width="50" height="50" relative="1" as="geometry">
            <mxPoint x="50" y="10" as="sourcePoint" />
            <mxPoint x="30" y="10" as="targetPoint" />
          </mxGeometry>
        </mxCell>
        <mxCell id="2nwuJbsm_z7F0_B4Owl_-124" value="" style="endArrow=classic;html=1;rounded=0;endSize=4;fillColor=#d5e8d4;strokeColor=#82b366;" edge="1" parent="2nwuJbsm_z7F0_B4Owl_-114">
          <mxGeometry width="50" height="50" relative="1" as="geometry">
            <mxPoint x="70" y="10" as="sourcePoint" />
            <mxPoint x="50" y="10" as="targetPoint" />
          </mxGeometry>
        </mxCell>
        <mxCell id="2nwuJbsm_z7F0_B4Owl_-125" value="" style="endArrow=classic;html=1;rounded=0;endSize=4;fillColor=#d5e8d4;strokeColor=#82b366;" edge="1" parent="2nwuJbsm_z7F0_B4Owl_-114">
          <mxGeometry width="50" height="50" relative="1" as="geometry">
            <mxPoint x="30" y="50" as="sourcePoint" />
            <mxPoint x="10" y="50" as="targetPoint" />
          </mxGeometry>
        </mxCell>
        <mxCell id="2nwuJbsm_z7F0_B4Owl_-126" value="" style="endArrow=classic;html=1;rounded=0;endSize=4;fillColor=#d5e8d4;strokeColor=#82b366;" edge="1" parent="2nwuJbsm_z7F0_B4Owl_-114">
          <mxGeometry width="50" height="50" relative="1" as="geometry">
            <mxPoint x="50" y="50" as="sourcePoint" />
            <mxPoint x="30" y="50" as="targetPoint" />
          </mxGeometry>
        </mxCell>
        <mxCell id="2nwuJbsm_z7F0_B4Owl_-127" value="" style="endArrow=classic;html=1;rounded=0;endSize=4;fillColor=#d5e8d4;strokeColor=#82b366;" edge="1" parent="2nwuJbsm_z7F0_B4Owl_-114">
          <mxGeometry width="50" height="50" relative="1" as="geometry">
            <mxPoint x="70" y="50" as="sourcePoint" />
            <mxPoint x="50" y="50" as="targetPoint" />
          </mxGeometry>
        </mxCell>
        <mxCell id="2nwuJbsm_z7F0_B4Owl_-128" value="" style="endArrow=classic;html=1;rounded=0;endSize=4;fillColor=#d5e8d4;strokeColor=#82b366;" edge="1" parent="2nwuJbsm_z7F0_B4Owl_-114">
          <mxGeometry width="50" height="50" relative="1" as="geometry">
            <mxPoint x="70" y="30" as="sourcePoint" />
            <mxPoint x="50" y="30" as="targetPoint" />
          </mxGeometry>
        </mxCell>
        <mxCell id="2nwuJbsm_z7F0_B4Owl_-129" value="" style="endArrow=classic;html=1;rounded=0;endSize=4;fillColor=#d5e8d4;strokeColor=#82b366;" edge="1" parent="2nwuJbsm_z7F0_B4Owl_-114">
          <mxGeometry width="50" height="50" relative="1" as="geometry">
            <mxPoint x="50" y="30" as="sourcePoint" />
            <mxPoint x="30" y="30" as="targetPoint" />
          </mxGeometry>
        </mxCell>
        <mxCell id="2nwuJbsm_z7F0_B4Owl_-130" value="" style="endArrow=classic;html=1;rounded=0;endSize=4;fillColor=#d5e8d4;strokeColor=#82b366;" edge="1" parent="2nwuJbsm_z7F0_B4Owl_-114">
          <mxGeometry width="50" height="50" relative="1" as="geometry">
            <mxPoint x="30" y="30" as="sourcePoint" />
            <mxPoint x="10" y="30" as="targetPoint" />
          </mxGeometry>
        </mxCell>
        <mxCell id="2nwuJbsm_z7F0_B4Owl_-131" value="" style="endArrow=classic;html=1;rounded=0;endSize=4;fillColor=#d5e8d4;strokeColor=#82b366;" edge="1" parent="2nwuJbsm_z7F0_B4Owl_-114">
          <mxGeometry width="50" height="50" relative="1" as="geometry">
            <mxPoint x="70" y="70" as="sourcePoint" />
            <mxPoint x="50" y="70" as="targetPoint" />
          </mxGeometry>
        </mxCell>
        <mxCell id="2nwuJbsm_z7F0_B4Owl_-132" value="" style="endArrow=classic;html=1;rounded=0;endSize=4;fillColor=#d5e8d4;strokeColor=#82b366;" edge="1" parent="2nwuJbsm_z7F0_B4Owl_-114">
          <mxGeometry width="50" height="50" relative="1" as="geometry">
            <mxPoint x="50" y="70" as="sourcePoint" />
            <mxPoint x="30" y="70" as="targetPoint" />
          </mxGeometry>
        </mxCell>
        <mxCell id="2nwuJbsm_z7F0_B4Owl_-133" value="" style="endArrow=classic;html=1;rounded=0;endSize=4;fillColor=#d5e8d4;strokeColor=#82b366;" edge="1" parent="2nwuJbsm_z7F0_B4Owl_-114">
          <mxGeometry width="50" height="50" relative="1" as="geometry">
            <mxPoint x="30" y="70" as="sourcePoint" />
            <mxPoint x="10" y="70" as="targetPoint" />
          </mxGeometry>
        </mxCell>
        <mxCell id="2nwuJbsm_z7F0_B4Owl_-134" value="" style="endArrow=none;dashed=1;html=1;rounded=0;fillColor=#d5e8d4;strokeColor=#82b366;" edge="1" parent="2nwuJbsm_z7F0_B4Owl_-113">
          <mxGeometry width="50" height="50" relative="1" as="geometry">
            <mxPoint x="70" y="10" as="sourcePoint" />
            <mxPoint x="10" y="30" as="targetPoint" />
          </mxGeometry>
        </mxCell>
        <mxCell id="2nwuJbsm_z7F0_B4Owl_-135" value="" style="endArrow=none;dashed=1;html=1;rounded=0;fillColor=#d5e8d4;strokeColor=#82b366;" edge="1" parent="2nwuJbsm_z7F0_B4Owl_-113">
          <mxGeometry width="50" height="50" relative="1" as="geometry">
            <mxPoint x="70" y="30" as="sourcePoint" />
            <mxPoint x="10" y="50" as="targetPoint" />
          </mxGeometry>
        </mxCell>
        <mxCell id="2nwuJbsm_z7F0_B4Owl_-136" value="" style="endArrow=none;dashed=1;html=1;rounded=0;fillColor=#d5e8d4;strokeColor=#82b366;" edge="1" parent="2nwuJbsm_z7F0_B4Owl_-113">
          <mxGeometry width="50" height="50" relative="1" as="geometry">
            <mxPoint x="70" y="50" as="sourcePoint" />
            <mxPoint x="10" y="70" as="targetPoint" />
          </mxGeometry>
        </mxCell>
        <mxCell id="2nwuJbsm_z7F0_B4Owl_-137" value="" style="group" vertex="1" connectable="0" parent="1">
          <mxGeometry x="450" y="100" width="80" height="80" as="geometry" />
        </mxCell>
        <mxCell id="2nwuJbsm_z7F0_B4Owl_-138" value="" style="group" vertex="1" connectable="0" parent="2nwuJbsm_z7F0_B4Owl_-137">
          <mxGeometry width="80" height="80" as="geometry" />
        </mxCell>
        <mxCell id="2nwuJbsm_z7F0_B4Owl_-139" value="" style="whiteSpace=wrap;html=1;aspect=fixed;fillColor=light-dark(#eaf1df, #1F2F1E);strokeColor=none;" vertex="1" parent="2nwuJbsm_z7F0_B4Owl_-138">
          <mxGeometry width="80" height="80" as="geometry" />
        </mxCell>
        <mxCell id="2nwuJbsm_z7F0_B4Owl_-140" value="" style="endArrow=none;html=1;rounded=0;exitX=0;exitY=0.25;exitDx=0;exitDy=0;entryX=1;entryY=0.25;entryDx=0;entryDy=0;strokeWidth=2;strokeColor=#FFFFFF;" edge="1" parent="2nwuJbsm_z7F0_B4Owl_-138" source="2nwuJbsm_z7F0_B4Owl_-139" target="2nwuJbsm_z7F0_B4Owl_-139">
          <mxGeometry width="50" height="50" relative="1" as="geometry">
            <mxPoint x="30" y="250" as="sourcePoint" />
            <mxPoint x="80" y="200" as="targetPoint" />
          </mxGeometry>
        </mxCell>
        <mxCell id="2nwuJbsm_z7F0_B4Owl_-141" value="" style="endArrow=none;html=1;rounded=0;exitX=0;exitY=0.5;exitDx=0;exitDy=0;entryX=1;entryY=0.5;entryDx=0;entryDy=0;strokeColor=#FFFFFF;strokeWidth=2;" edge="1" parent="2nwuJbsm_z7F0_B4Owl_-138" source="2nwuJbsm_z7F0_B4Owl_-139" target="2nwuJbsm_z7F0_B4Owl_-139">
          <mxGeometry width="50" height="50" relative="1" as="geometry">
            <mxPoint x="110" y="190" as="sourcePoint" />
            <mxPoint x="190" y="190" as="targetPoint" />
          </mxGeometry>
        </mxCell>
        <mxCell id="2nwuJbsm_z7F0_B4Owl_-142" value="" style="endArrow=none;html=1;rounded=0;exitX=0;exitY=0.75;exitDx=0;exitDy=0;entryX=1;entryY=0.75;entryDx=0;entryDy=0;strokeWidth=2;strokeColor=#FFFFFF;" edge="1" parent="2nwuJbsm_z7F0_B4Owl_-138" source="2nwuJbsm_z7F0_B4Owl_-139" target="2nwuJbsm_z7F0_B4Owl_-139">
          <mxGeometry width="50" height="50" relative="1" as="geometry">
            <mxPoint x="150" y="120" as="sourcePoint" />
            <mxPoint x="230" y="120" as="targetPoint" />
          </mxGeometry>
        </mxCell>
        <mxCell id="2nwuJbsm_z7F0_B4Owl_-143" value="" style="endArrow=none;html=1;rounded=0;exitX=0.25;exitY=1;exitDx=0;exitDy=0;entryX=0.25;entryY=0;entryDx=0;entryDy=0;strokeWidth=2;strokeColor=#FFFFFF;" edge="1" parent="2nwuJbsm_z7F0_B4Owl_-138" source="2nwuJbsm_z7F0_B4Owl_-139" target="2nwuJbsm_z7F0_B4Owl_-139">
          <mxGeometry width="50" height="50" relative="1" as="geometry">
            <mxPoint x="120" y="120" as="sourcePoint" />
            <mxPoint x="200" y="120" as="targetPoint" />
          </mxGeometry>
        </mxCell>
        <mxCell id="2nwuJbsm_z7F0_B4Owl_-144" value="" style="endArrow=none;html=1;rounded=0;exitX=0.5;exitY=1;exitDx=0;exitDy=0;entryX=0.5;entryY=0;entryDx=0;entryDy=0;strokeWidth=2;strokeColor=#FFFFFF;" edge="1" parent="2nwuJbsm_z7F0_B4Owl_-138" source="2nwuJbsm_z7F0_B4Owl_-139" target="2nwuJbsm_z7F0_B4Owl_-139">
          <mxGeometry width="50" height="50" relative="1" as="geometry">
            <mxPoint x="180" y="110" as="sourcePoint" />
            <mxPoint x="260" y="110" as="targetPoint" />
          </mxGeometry>
        </mxCell>
        <mxCell id="2nwuJbsm_z7F0_B4Owl_-145" value="" style="endArrow=none;html=1;rounded=0;exitX=0.75;exitY=1;exitDx=0;exitDy=0;entryX=0.75;entryY=0;entryDx=0;entryDy=0;strokeWidth=2;strokeColor=#FFFFFF;" edge="1" parent="2nwuJbsm_z7F0_B4Owl_-138" source="2nwuJbsm_z7F0_B4Owl_-139" target="2nwuJbsm_z7F0_B4Owl_-139">
          <mxGeometry width="50" height="50" relative="1" as="geometry">
            <mxPoint x="190" y="90" as="sourcePoint" />
            <mxPoint x="270" y="90" as="targetPoint" />
          </mxGeometry>
        </mxCell>
        <mxCell id="2nwuJbsm_z7F0_B4Owl_-146" value="" style="endArrow=classic;html=1;rounded=0;endSize=4;fillColor=#d5e8d4;strokeColor=#82b366;" edge="1" parent="2nwuJbsm_z7F0_B4Owl_-138">
          <mxGeometry width="50" height="50" relative="1" as="geometry">
            <mxPoint x="10" y="10" as="sourcePoint" />
            <mxPoint x="30" y="10" as="targetPoint" />
          </mxGeometry>
        </mxCell>
        <mxCell id="2nwuJbsm_z7F0_B4Owl_-147" value="" style="endArrow=classic;html=1;rounded=0;endSize=4;fillColor=#d5e8d4;strokeColor=#82b366;" edge="1" parent="2nwuJbsm_z7F0_B4Owl_-138">
          <mxGeometry width="50" height="50" relative="1" as="geometry">
            <mxPoint x="30" y="10" as="sourcePoint" />
            <mxPoint x="50" y="10" as="targetPoint" />
          </mxGeometry>
        </mxCell>
        <mxCell id="2nwuJbsm_z7F0_B4Owl_-148" value="" style="endArrow=classic;html=1;rounded=0;endSize=4;fillColor=#d5e8d4;strokeColor=#82b366;" edge="1" parent="2nwuJbsm_z7F0_B4Owl_-138">
          <mxGeometry width="50" height="50" relative="1" as="geometry">
            <mxPoint x="50" y="10" as="sourcePoint" />
            <mxPoint x="70" y="10" as="targetPoint" />
          </mxGeometry>
        </mxCell>
        <mxCell id="2nwuJbsm_z7F0_B4Owl_-149" value="" style="endArrow=classic;html=1;rounded=0;endSize=4;fillColor=#d5e8d4;strokeColor=#82b366;" edge="1" parent="2nwuJbsm_z7F0_B4Owl_-138">
          <mxGeometry width="50" height="50" relative="1" as="geometry">
            <mxPoint x="10" y="50" as="sourcePoint" />
            <mxPoint x="30" y="50" as="targetPoint" />
          </mxGeometry>
        </mxCell>
        <mxCell id="2nwuJbsm_z7F0_B4Owl_-150" value="" style="endArrow=classic;html=1;rounded=0;endSize=4;fillColor=#d5e8d4;strokeColor=#82b366;" edge="1" parent="2nwuJbsm_z7F0_B4Owl_-138">
          <mxGeometry width="50" height="50" relative="1" as="geometry">
            <mxPoint x="30" y="50" as="sourcePoint" />
            <mxPoint x="50" y="50" as="targetPoint" />
          </mxGeometry>
        </mxCell>
        <mxCell id="2nwuJbsm_z7F0_B4Owl_-151" value="" style="endArrow=classic;html=1;rounded=0;endSize=4;fillColor=#d5e8d4;strokeColor=#82b366;" edge="1" parent="2nwuJbsm_z7F0_B4Owl_-138">
          <mxGeometry width="50" height="50" relative="1" as="geometry">
            <mxPoint x="50" y="50" as="sourcePoint" />
            <mxPoint x="70" y="50" as="targetPoint" />
          </mxGeometry>
        </mxCell>
        <mxCell id="2nwuJbsm_z7F0_B4Owl_-152" value="" style="endArrow=classic;html=1;rounded=0;endSize=4;fillColor=#d5e8d4;strokeColor=#82b366;" edge="1" parent="2nwuJbsm_z7F0_B4Owl_-138">
          <mxGeometry width="50" height="50" relative="1" as="geometry">
            <mxPoint x="50" y="30" as="sourcePoint" />
            <mxPoint x="70" y="30" as="targetPoint" />
          </mxGeometry>
        </mxCell>
        <mxCell id="2nwuJbsm_z7F0_B4Owl_-153" value="" style="endArrow=classic;html=1;rounded=0;endSize=4;fillColor=#d5e8d4;strokeColor=#82b366;" edge="1" parent="2nwuJbsm_z7F0_B4Owl_-138">
          <mxGeometry width="50" height="50" relative="1" as="geometry">
            <mxPoint x="30" y="30" as="sourcePoint" />
            <mxPoint x="50" y="30" as="targetPoint" />
          </mxGeometry>
        </mxCell>
        <mxCell id="2nwuJbsm_z7F0_B4Owl_-154" value="" style="endArrow=classic;html=1;rounded=0;endSize=4;fillColor=#d5e8d4;strokeColor=#82b366;" edge="1" parent="2nwuJbsm_z7F0_B4Owl_-138">
          <mxGeometry width="50" height="50" relative="1" as="geometry">
            <mxPoint x="10" y="30" as="sourcePoint" />
            <mxPoint x="30" y="30" as="targetPoint" />
          </mxGeometry>
        </mxCell>
        <mxCell id="2nwuJbsm_z7F0_B4Owl_-155" value="" style="endArrow=classic;html=1;rounded=0;endSize=4;fillColor=#d5e8d4;strokeColor=#82b366;" edge="1" parent="2nwuJbsm_z7F0_B4Owl_-138">
          <mxGeometry width="50" height="50" relative="1" as="geometry">
            <mxPoint x="50" y="70" as="sourcePoint" />
            <mxPoint x="70" y="70" as="targetPoint" />
          </mxGeometry>
        </mxCell>
        <mxCell id="2nwuJbsm_z7F0_B4Owl_-156" value="" style="endArrow=classic;html=1;rounded=0;endSize=4;fillColor=#d5e8d4;strokeColor=#82b366;" edge="1" parent="2nwuJbsm_z7F0_B4Owl_-138">
          <mxGeometry width="50" height="50" relative="1" as="geometry">
            <mxPoint x="30" y="70" as="sourcePoint" />
            <mxPoint x="50" y="70" as="targetPoint" />
          </mxGeometry>
        </mxCell>
        <mxCell id="2nwuJbsm_z7F0_B4Owl_-157" value="" style="endArrow=classic;html=1;rounded=0;endSize=4;fillColor=#d5e8d4;strokeColor=#82b366;" edge="1" parent="2nwuJbsm_z7F0_B4Owl_-138">
          <mxGeometry width="50" height="50" relative="1" as="geometry">
            <mxPoint x="10" y="70" as="sourcePoint" />
            <mxPoint x="30" y="70" as="targetPoint" />
          </mxGeometry>
        </mxCell>
        <mxCell id="2nwuJbsm_z7F0_B4Owl_-158" value="" style="endArrow=none;dashed=1;html=1;rounded=0;fillColor=#d5e8d4;strokeColor=#82b366;" edge="1" parent="2nwuJbsm_z7F0_B4Owl_-137">
          <mxGeometry width="50" height="50" relative="1" as="geometry">
            <mxPoint x="10" y="30" as="sourcePoint" />
            <mxPoint x="70" y="10" as="targetPoint" />
          </mxGeometry>
        </mxCell>
        <mxCell id="2nwuJbsm_z7F0_B4Owl_-159" value="" style="endArrow=none;dashed=1;html=1;rounded=0;fillColor=#d5e8d4;strokeColor=#82b366;" edge="1" parent="2nwuJbsm_z7F0_B4Owl_-137">
          <mxGeometry width="50" height="50" relative="1" as="geometry">
            <mxPoint x="10" y="50" as="sourcePoint" />
            <mxPoint x="70" y="30" as="targetPoint" />
          </mxGeometry>
        </mxCell>
        <mxCell id="2nwuJbsm_z7F0_B4Owl_-160" value="" style="endArrow=none;dashed=1;html=1;rounded=0;fillColor=#d5e8d4;strokeColor=#82b366;" edge="1" parent="2nwuJbsm_z7F0_B4Owl_-137">
          <mxGeometry width="50" height="50" relative="1" as="geometry">
            <mxPoint x="10" y="70" as="sourcePoint" />
            <mxPoint x="70" y="50" as="targetPoint" />
          </mxGeometry>
        </mxCell>
        <mxCell id="2nwuJbsm_z7F0_B4Owl_-161" value="" style="group;direction=north;flipH=1;rotation=90;" vertex="1" connectable="0" parent="1">
          <mxGeometry x="630" y="100" width="80" height="80" as="geometry" />
        </mxCell>
        <mxCell id="2nwuJbsm_z7F0_B4Owl_-162" value="" style="group;rotation=90;" vertex="1" connectable="0" parent="2nwuJbsm_z7F0_B4Owl_-161">
          <mxGeometry width="80" height="80" as="geometry" />
        </mxCell>
        <mxCell id="2nwuJbsm_z7F0_B4Owl_-163" value="" style="whiteSpace=wrap;html=1;aspect=fixed;fillColor=light-dark(#eaf1df, #1F2F1E);strokeColor=none;rotation=90;" vertex="1" parent="2nwuJbsm_z7F0_B4Owl_-162">
          <mxGeometry width="80" height="80" as="geometry" />
        </mxCell>
        <mxCell id="2nwuJbsm_z7F0_B4Owl_-164" value="" style="endArrow=none;html=1;rounded=0;exitX=0;exitY=0.25;exitDx=0;exitDy=0;entryX=1;entryY=0.25;entryDx=0;entryDy=0;strokeWidth=2;strokeColor=#FFFFFF;" edge="1" parent="2nwuJbsm_z7F0_B4Owl_-162" source="2nwuJbsm_z7F0_B4Owl_-163" target="2nwuJbsm_z7F0_B4Owl_-163">
          <mxGeometry width="50" height="50" relative="1" as="geometry">
            <mxPoint x="-170" y="30" as="sourcePoint" />
            <mxPoint x="-120" y="80" as="targetPoint" />
          </mxGeometry>
        </mxCell>
        <mxCell id="2nwuJbsm_z7F0_B4Owl_-165" value="" style="endArrow=none;html=1;rounded=0;exitX=0;exitY=0.5;exitDx=0;exitDy=0;entryX=1;entryY=0.5;entryDx=0;entryDy=0;strokeColor=#FFFFFF;strokeWidth=2;" edge="1" parent="2nwuJbsm_z7F0_B4Owl_-162" source="2nwuJbsm_z7F0_B4Owl_-163" target="2nwuJbsm_z7F0_B4Owl_-163">
          <mxGeometry width="50" height="50" relative="1" as="geometry">
            <mxPoint x="-110" y="110" as="sourcePoint" />
            <mxPoint x="-110" y="190" as="targetPoint" />
          </mxGeometry>
        </mxCell>
        <mxCell id="2nwuJbsm_z7F0_B4Owl_-166" value="" style="endArrow=none;html=1;rounded=0;exitX=0;exitY=0.75;exitDx=0;exitDy=0;entryX=1;entryY=0.75;entryDx=0;entryDy=0;strokeWidth=2;strokeColor=#FFFFFF;" edge="1" parent="2nwuJbsm_z7F0_B4Owl_-162" source="2nwuJbsm_z7F0_B4Owl_-163" target="2nwuJbsm_z7F0_B4Owl_-163">
          <mxGeometry width="50" height="50" relative="1" as="geometry">
            <mxPoint x="-40" y="150" as="sourcePoint" />
            <mxPoint x="-40" y="230" as="targetPoint" />
          </mxGeometry>
        </mxCell>
        <mxCell id="2nwuJbsm_z7F0_B4Owl_-167" value="" style="endArrow=none;html=1;rounded=0;exitX=0.25;exitY=1;exitDx=0;exitDy=0;entryX=0.25;entryY=0;entryDx=0;entryDy=0;strokeWidth=2;strokeColor=#FFFFFF;" edge="1" parent="2nwuJbsm_z7F0_B4Owl_-162" source="2nwuJbsm_z7F0_B4Owl_-163" target="2nwuJbsm_z7F0_B4Owl_-163">
          <mxGeometry width="50" height="50" relative="1" as="geometry">
            <mxPoint x="-40" y="120" as="sourcePoint" />
            <mxPoint x="-40" y="200" as="targetPoint" />
          </mxGeometry>
        </mxCell>
        <mxCell id="2nwuJbsm_z7F0_B4Owl_-168" value="" style="endArrow=none;html=1;rounded=0;exitX=0.5;exitY=1;exitDx=0;exitDy=0;entryX=0.5;entryY=0;entryDx=0;entryDy=0;strokeWidth=2;strokeColor=#FFFFFF;" edge="1" parent="2nwuJbsm_z7F0_B4Owl_-162" source="2nwuJbsm_z7F0_B4Owl_-163" target="2nwuJbsm_z7F0_B4Owl_-163">
          <mxGeometry width="50" height="50" relative="1" as="geometry">
            <mxPoint x="-30" y="180" as="sourcePoint" />
            <mxPoint x="-30" y="260" as="targetPoint" />
          </mxGeometry>
        </mxCell>
        <mxCell id="2nwuJbsm_z7F0_B4Owl_-169" value="" style="endArrow=none;html=1;rounded=0;exitX=0.75;exitY=1;exitDx=0;exitDy=0;entryX=0.75;entryY=0;entryDx=0;entryDy=0;strokeWidth=2;strokeColor=#FFFFFF;" edge="1" parent="2nwuJbsm_z7F0_B4Owl_-162" source="2nwuJbsm_z7F0_B4Owl_-163" target="2nwuJbsm_z7F0_B4Owl_-163">
          <mxGeometry width="50" height="50" relative="1" as="geometry">
            <mxPoint x="-10" y="190" as="sourcePoint" />
            <mxPoint x="-10" y="270" as="targetPoint" />
          </mxGeometry>
        </mxCell>
        <mxCell id="2nwuJbsm_z7F0_B4Owl_-170" value="" style="endArrow=classic;html=1;rounded=0;endSize=4;fillColor=#d5e8d4;strokeColor=#82b366;" edge="1" parent="2nwuJbsm_z7F0_B4Owl_-162">
          <mxGeometry width="50" height="50" relative="1" as="geometry">
            <mxPoint x="70" y="10" as="sourcePoint" />
            <mxPoint x="70" y="30" as="targetPoint" />
          </mxGeometry>
        </mxCell>
        <mxCell id="2nwuJbsm_z7F0_B4Owl_-171" value="" style="endArrow=classic;html=1;rounded=0;endSize=4;fillColor=#d5e8d4;strokeColor=#82b366;" edge="1" parent="2nwuJbsm_z7F0_B4Owl_-162">
          <mxGeometry width="50" height="50" relative="1" as="geometry">
            <mxPoint x="70" y="30" as="sourcePoint" />
            <mxPoint x="70" y="50" as="targetPoint" />
          </mxGeometry>
        </mxCell>
        <mxCell id="2nwuJbsm_z7F0_B4Owl_-172" value="" style="endArrow=classic;html=1;rounded=0;endSize=4;fillColor=#d5e8d4;strokeColor=#82b366;" edge="1" parent="2nwuJbsm_z7F0_B4Owl_-162">
          <mxGeometry width="50" height="50" relative="1" as="geometry">
            <mxPoint x="70" y="50" as="sourcePoint" />
            <mxPoint x="70" y="70" as="targetPoint" />
          </mxGeometry>
        </mxCell>
        <mxCell id="2nwuJbsm_z7F0_B4Owl_-173" value="" style="endArrow=classic;html=1;rounded=0;endSize=4;fillColor=#d5e8d4;strokeColor=#82b366;" edge="1" parent="2nwuJbsm_z7F0_B4Owl_-162">
          <mxGeometry width="50" height="50" relative="1" as="geometry">
            <mxPoint x="30" y="10" as="sourcePoint" />
            <mxPoint x="30" y="30" as="targetPoint" />
          </mxGeometry>
        </mxCell>
        <mxCell id="2nwuJbsm_z7F0_B4Owl_-174" value="" style="endArrow=classic;html=1;rounded=0;endSize=4;fillColor=#d5e8d4;strokeColor=#82b366;" edge="1" parent="2nwuJbsm_z7F0_B4Owl_-162">
          <mxGeometry width="50" height="50" relative="1" as="geometry">
            <mxPoint x="30" y="30" as="sourcePoint" />
            <mxPoint x="30" y="50" as="targetPoint" />
          </mxGeometry>
        </mxCell>
        <mxCell id="2nwuJbsm_z7F0_B4Owl_-175" value="" style="endArrow=classic;html=1;rounded=0;endSize=4;fillColor=#d5e8d4;strokeColor=#82b366;" edge="1" parent="2nwuJbsm_z7F0_B4Owl_-162">
          <mxGeometry width="50" height="50" relative="1" as="geometry">
            <mxPoint x="30" y="50" as="sourcePoint" />
            <mxPoint x="30" y="70" as="targetPoint" />
          </mxGeometry>
        </mxCell>
        <mxCell id="2nwuJbsm_z7F0_B4Owl_-176" value="" style="endArrow=classic;html=1;rounded=0;endSize=4;fillColor=#d5e8d4;strokeColor=#82b366;" edge="1" parent="2nwuJbsm_z7F0_B4Owl_-162">
          <mxGeometry width="50" height="50" relative="1" as="geometry">
            <mxPoint x="50" y="50" as="sourcePoint" />
            <mxPoint x="50" y="70" as="targetPoint" />
          </mxGeometry>
        </mxCell>
        <mxCell id="2nwuJbsm_z7F0_B4Owl_-177" value="" style="endArrow=classic;html=1;rounded=0;endSize=4;fillColor=#d5e8d4;strokeColor=#82b366;" edge="1" parent="2nwuJbsm_z7F0_B4Owl_-162">
          <mxGeometry width="50" height="50" relative="1" as="geometry">
            <mxPoint x="50" y="30" as="sourcePoint" />
            <mxPoint x="50" y="50" as="targetPoint" />
          </mxGeometry>
        </mxCell>
        <mxCell id="2nwuJbsm_z7F0_B4Owl_-178" value="" style="endArrow=classic;html=1;rounded=0;endSize=4;fillColor=#d5e8d4;strokeColor=#82b366;" edge="1" parent="2nwuJbsm_z7F0_B4Owl_-162">
          <mxGeometry width="50" height="50" relative="1" as="geometry">
            <mxPoint x="50" y="10" as="sourcePoint" />
            <mxPoint x="50" y="30" as="targetPoint" />
          </mxGeometry>
        </mxCell>
        <mxCell id="2nwuJbsm_z7F0_B4Owl_-179" value="" style="endArrow=classic;html=1;rounded=0;endSize=4;fillColor=#d5e8d4;strokeColor=#82b366;" edge="1" parent="2nwuJbsm_z7F0_B4Owl_-162">
          <mxGeometry width="50" height="50" relative="1" as="geometry">
            <mxPoint x="10" y="50" as="sourcePoint" />
            <mxPoint x="10" y="70" as="targetPoint" />
          </mxGeometry>
        </mxCell>
        <mxCell id="2nwuJbsm_z7F0_B4Owl_-180" value="" style="endArrow=classic;html=1;rounded=0;endSize=4;fillColor=#d5e8d4;strokeColor=#82b366;" edge="1" parent="2nwuJbsm_z7F0_B4Owl_-162">
          <mxGeometry width="50" height="50" relative="1" as="geometry">
            <mxPoint x="10" y="30" as="sourcePoint" />
            <mxPoint x="10" y="50" as="targetPoint" />
          </mxGeometry>
        </mxCell>
        <mxCell id="2nwuJbsm_z7F0_B4Owl_-181" value="" style="endArrow=classic;html=1;rounded=0;endSize=4;fillColor=#d5e8d4;strokeColor=#82b366;" edge="1" parent="2nwuJbsm_z7F0_B4Owl_-162">
          <mxGeometry width="50" height="50" relative="1" as="geometry">
            <mxPoint x="10" y="10" as="sourcePoint" />
            <mxPoint x="10" y="30" as="targetPoint" />
          </mxGeometry>
        </mxCell>
        <mxCell id="2nwuJbsm_z7F0_B4Owl_-182" value="" style="endArrow=none;dashed=1;html=1;rounded=0;fillColor=#d5e8d4;strokeColor=#82b366;" edge="1" parent="2nwuJbsm_z7F0_B4Owl_-161">
          <mxGeometry width="50" height="50" relative="1" as="geometry">
            <mxPoint x="30" y="10" as="sourcePoint" />
            <mxPoint x="10" y="70" as="targetPoint" />
          </mxGeometry>
        </mxCell>
        <mxCell id="2nwuJbsm_z7F0_B4Owl_-183" value="" style="endArrow=none;dashed=1;html=1;rounded=0;fillColor=#d5e8d4;strokeColor=#82b366;" edge="1" parent="2nwuJbsm_z7F0_B4Owl_-161">
          <mxGeometry width="50" height="50" relative="1" as="geometry">
            <mxPoint x="50" y="10" as="sourcePoint" />
            <mxPoint x="30" y="70" as="targetPoint" />
          </mxGeometry>
        </mxCell>
        <mxCell id="2nwuJbsm_z7F0_B4Owl_-184" value="" style="endArrow=none;dashed=1;html=1;rounded=0;fillColor=#d5e8d4;strokeColor=#82b366;" edge="1" parent="2nwuJbsm_z7F0_B4Owl_-161">
          <mxGeometry width="50" height="50" relative="1" as="geometry">
            <mxPoint x="70" y="10" as="sourcePoint" />
            <mxPoint x="50" y="70" as="targetPoint" />
          </mxGeometry>
        </mxCell>
        <mxCell id="2nwuJbsm_z7F0_B4Owl_-185" value="" style="group;direction=north;flipH=1;rotation=-90;" vertex="1" connectable="0" parent="1">
          <mxGeometry x="720" y="100" width="80" height="80" as="geometry" />
        </mxCell>
        <mxCell id="2nwuJbsm_z7F0_B4Owl_-186" value="" style="group;rotation=-90;" vertex="1" connectable="0" parent="2nwuJbsm_z7F0_B4Owl_-185">
          <mxGeometry width="80" height="80" as="geometry" />
        </mxCell>
        <mxCell id="2nwuJbsm_z7F0_B4Owl_-187" value="" style="whiteSpace=wrap;html=1;aspect=fixed;fillColor=light-dark(#eaf1df, #1F2F1E);strokeColor=none;rotation=-90;" vertex="1" parent="2nwuJbsm_z7F0_B4Owl_-186">
          <mxGeometry width="80" height="80" as="geometry" />
        </mxCell>
        <mxCell id="2nwuJbsm_z7F0_B4Owl_-188" value="" style="endArrow=none;html=1;rounded=0;exitX=0;exitY=0.25;exitDx=0;exitDy=0;entryX=1;entryY=0.25;entryDx=0;entryDy=0;strokeWidth=2;strokeColor=#FFFFFF;" edge="1" parent="2nwuJbsm_z7F0_B4Owl_-186" source="2nwuJbsm_z7F0_B4Owl_-187" target="2nwuJbsm_z7F0_B4Owl_-187">
          <mxGeometry width="50" height="50" relative="1" as="geometry">
            <mxPoint x="250" y="50" as="sourcePoint" />
            <mxPoint x="200" as="targetPoint" />
          </mxGeometry>
        </mxCell>
        <mxCell id="2nwuJbsm_z7F0_B4Owl_-189" value="" style="endArrow=none;html=1;rounded=0;exitX=0;exitY=0.5;exitDx=0;exitDy=0;entryX=1;entryY=0.5;entryDx=0;entryDy=0;strokeColor=#FFFFFF;strokeWidth=2;" edge="1" parent="2nwuJbsm_z7F0_B4Owl_-186" source="2nwuJbsm_z7F0_B4Owl_-187" target="2nwuJbsm_z7F0_B4Owl_-187">
          <mxGeometry width="50" height="50" relative="1" as="geometry">
            <mxPoint x="190" y="-30" as="sourcePoint" />
            <mxPoint x="190" y="-110" as="targetPoint" />
          </mxGeometry>
        </mxCell>
        <mxCell id="2nwuJbsm_z7F0_B4Owl_-190" value="" style="endArrow=none;html=1;rounded=0;exitX=0;exitY=0.75;exitDx=0;exitDy=0;entryX=1;entryY=0.75;entryDx=0;entryDy=0;strokeWidth=2;strokeColor=#FFFFFF;" edge="1" parent="2nwuJbsm_z7F0_B4Owl_-186" source="2nwuJbsm_z7F0_B4Owl_-187" target="2nwuJbsm_z7F0_B4Owl_-187">
          <mxGeometry width="50" height="50" relative="1" as="geometry">
            <mxPoint x="120" y="-70" as="sourcePoint" />
            <mxPoint x="120" y="-150" as="targetPoint" />
          </mxGeometry>
        </mxCell>
        <mxCell id="2nwuJbsm_z7F0_B4Owl_-191" value="" style="endArrow=none;html=1;rounded=0;exitX=0.25;exitY=1;exitDx=0;exitDy=0;entryX=0.25;entryY=0;entryDx=0;entryDy=0;strokeWidth=2;strokeColor=#FFFFFF;" edge="1" parent="2nwuJbsm_z7F0_B4Owl_-186" source="2nwuJbsm_z7F0_B4Owl_-187" target="2nwuJbsm_z7F0_B4Owl_-187">
          <mxGeometry width="50" height="50" relative="1" as="geometry">
            <mxPoint x="120" y="-40" as="sourcePoint" />
            <mxPoint x="120" y="-120" as="targetPoint" />
          </mxGeometry>
        </mxCell>
        <mxCell id="2nwuJbsm_z7F0_B4Owl_-192" value="" style="endArrow=none;html=1;rounded=0;exitX=0.5;exitY=1;exitDx=0;exitDy=0;entryX=0.5;entryY=0;entryDx=0;entryDy=0;strokeWidth=2;strokeColor=#FFFFFF;" edge="1" parent="2nwuJbsm_z7F0_B4Owl_-186" source="2nwuJbsm_z7F0_B4Owl_-187" target="2nwuJbsm_z7F0_B4Owl_-187">
          <mxGeometry width="50" height="50" relative="1" as="geometry">
            <mxPoint x="110" y="-100" as="sourcePoint" />
            <mxPoint x="110" y="-180" as="targetPoint" />
          </mxGeometry>
        </mxCell>
        <mxCell id="2nwuJbsm_z7F0_B4Owl_-193" value="" style="endArrow=none;html=1;rounded=0;exitX=0.75;exitY=1;exitDx=0;exitDy=0;entryX=0.75;entryY=0;entryDx=0;entryDy=0;strokeWidth=2;strokeColor=#FFFFFF;" edge="1" parent="2nwuJbsm_z7F0_B4Owl_-186" source="2nwuJbsm_z7F0_B4Owl_-187" target="2nwuJbsm_z7F0_B4Owl_-187">
          <mxGeometry width="50" height="50" relative="1" as="geometry">
            <mxPoint x="90" y="-110" as="sourcePoint" />
            <mxPoint x="90" y="-190" as="targetPoint" />
          </mxGeometry>
        </mxCell>
        <mxCell id="2nwuJbsm_z7F0_B4Owl_-194" value="" style="endArrow=classic;html=1;rounded=0;endSize=4;fillColor=#d5e8d4;strokeColor=#82b366;" edge="1" parent="2nwuJbsm_z7F0_B4Owl_-186">
          <mxGeometry width="50" height="50" relative="1" as="geometry">
            <mxPoint x="10" y="70" as="sourcePoint" />
            <mxPoint x="10" y="50" as="targetPoint" />
          </mxGeometry>
        </mxCell>
        <mxCell id="2nwuJbsm_z7F0_B4Owl_-195" value="" style="endArrow=classic;html=1;rounded=0;endSize=4;fillColor=#d5e8d4;strokeColor=#82b366;" edge="1" parent="2nwuJbsm_z7F0_B4Owl_-186">
          <mxGeometry width="50" height="50" relative="1" as="geometry">
            <mxPoint x="10" y="50" as="sourcePoint" />
            <mxPoint x="10" y="30" as="targetPoint" />
          </mxGeometry>
        </mxCell>
        <mxCell id="2nwuJbsm_z7F0_B4Owl_-196" value="" style="endArrow=classic;html=1;rounded=0;endSize=4;fillColor=#d5e8d4;strokeColor=#82b366;" edge="1" parent="2nwuJbsm_z7F0_B4Owl_-186">
          <mxGeometry width="50" height="50" relative="1" as="geometry">
            <mxPoint x="10" y="30" as="sourcePoint" />
            <mxPoint x="10" y="10" as="targetPoint" />
          </mxGeometry>
        </mxCell>
        <mxCell id="2nwuJbsm_z7F0_B4Owl_-197" value="" style="endArrow=classic;html=1;rounded=0;endSize=4;fillColor=#d5e8d4;strokeColor=#82b366;" edge="1" parent="2nwuJbsm_z7F0_B4Owl_-186">
          <mxGeometry width="50" height="50" relative="1" as="geometry">
            <mxPoint x="50" y="70" as="sourcePoint" />
            <mxPoint x="50" y="50" as="targetPoint" />
          </mxGeometry>
        </mxCell>
        <mxCell id="2nwuJbsm_z7F0_B4Owl_-198" value="" style="endArrow=classic;html=1;rounded=0;endSize=4;fillColor=#d5e8d4;strokeColor=#82b366;" edge="1" parent="2nwuJbsm_z7F0_B4Owl_-186">
          <mxGeometry width="50" height="50" relative="1" as="geometry">
            <mxPoint x="50" y="50" as="sourcePoint" />
            <mxPoint x="50" y="30" as="targetPoint" />
          </mxGeometry>
        </mxCell>
        <mxCell id="2nwuJbsm_z7F0_B4Owl_-199" value="" style="endArrow=classic;html=1;rounded=0;endSize=4;fillColor=#d5e8d4;strokeColor=#82b366;" edge="1" parent="2nwuJbsm_z7F0_B4Owl_-186">
          <mxGeometry width="50" height="50" relative="1" as="geometry">
            <mxPoint x="50" y="30" as="sourcePoint" />
            <mxPoint x="50" y="10" as="targetPoint" />
          </mxGeometry>
        </mxCell>
        <mxCell id="2nwuJbsm_z7F0_B4Owl_-200" value="" style="endArrow=classic;html=1;rounded=0;endSize=4;fillColor=#d5e8d4;strokeColor=#82b366;" edge="1" parent="2nwuJbsm_z7F0_B4Owl_-186">
          <mxGeometry width="50" height="50" relative="1" as="geometry">
            <mxPoint x="30" y="30" as="sourcePoint" />
            <mxPoint x="30" y="10" as="targetPoint" />
          </mxGeometry>
        </mxCell>
        <mxCell id="2nwuJbsm_z7F0_B4Owl_-201" value="" style="endArrow=classic;html=1;rounded=0;endSize=4;fillColor=#d5e8d4;strokeColor=#82b366;" edge="1" parent="2nwuJbsm_z7F0_B4Owl_-186">
          <mxGeometry width="50" height="50" relative="1" as="geometry">
            <mxPoint x="30" y="50" as="sourcePoint" />
            <mxPoint x="30" y="30" as="targetPoint" />
          </mxGeometry>
        </mxCell>
        <mxCell id="2nwuJbsm_z7F0_B4Owl_-202" value="" style="endArrow=classic;html=1;rounded=0;endSize=4;fillColor=#d5e8d4;strokeColor=#82b366;" edge="1" parent="2nwuJbsm_z7F0_B4Owl_-186">
          <mxGeometry width="50" height="50" relative="1" as="geometry">
            <mxPoint x="30" y="70" as="sourcePoint" />
            <mxPoint x="30" y="50" as="targetPoint" />
          </mxGeometry>
        </mxCell>
        <mxCell id="2nwuJbsm_z7F0_B4Owl_-203" value="" style="endArrow=classic;html=1;rounded=0;endSize=4;fillColor=#d5e8d4;strokeColor=#82b366;" edge="1" parent="2nwuJbsm_z7F0_B4Owl_-186">
          <mxGeometry width="50" height="50" relative="1" as="geometry">
            <mxPoint x="70" y="30" as="sourcePoint" />
            <mxPoint x="70" y="10" as="targetPoint" />
          </mxGeometry>
        </mxCell>
        <mxCell id="2nwuJbsm_z7F0_B4Owl_-204" value="" style="endArrow=classic;html=1;rounded=0;endSize=4;fillColor=#d5e8d4;strokeColor=#82b366;" edge="1" parent="2nwuJbsm_z7F0_B4Owl_-186">
          <mxGeometry width="50" height="50" relative="1" as="geometry">
            <mxPoint x="70" y="50" as="sourcePoint" />
            <mxPoint x="70" y="30" as="targetPoint" />
          </mxGeometry>
        </mxCell>
        <mxCell id="2nwuJbsm_z7F0_B4Owl_-205" value="" style="endArrow=classic;html=1;rounded=0;endSize=4;fillColor=#d5e8d4;strokeColor=#82b366;" edge="1" parent="2nwuJbsm_z7F0_B4Owl_-186">
          <mxGeometry width="50" height="50" relative="1" as="geometry">
            <mxPoint x="70" y="70" as="sourcePoint" />
            <mxPoint x="70" y="50" as="targetPoint" />
          </mxGeometry>
        </mxCell>
        <mxCell id="2nwuJbsm_z7F0_B4Owl_-206" value="" style="endArrow=none;dashed=1;html=1;rounded=0;fillColor=#d5e8d4;strokeColor=#82b366;" edge="1" parent="2nwuJbsm_z7F0_B4Owl_-185">
          <mxGeometry width="50" height="50" relative="1" as="geometry">
            <mxPoint x="50" y="70" as="sourcePoint" />
            <mxPoint x="70" y="10" as="targetPoint" />
          </mxGeometry>
        </mxCell>
        <mxCell id="2nwuJbsm_z7F0_B4Owl_-207" value="" style="endArrow=none;dashed=1;html=1;rounded=0;fillColor=#d5e8d4;strokeColor=#82b366;" edge="1" parent="2nwuJbsm_z7F0_B4Owl_-185">
          <mxGeometry width="50" height="50" relative="1" as="geometry">
            <mxPoint x="30" y="70" as="sourcePoint" />
            <mxPoint x="50" y="10" as="targetPoint" />
          </mxGeometry>
        </mxCell>
        <mxCell id="2nwuJbsm_z7F0_B4Owl_-208" value="" style="endArrow=none;dashed=1;html=1;rounded=0;fillColor=#d5e8d4;strokeColor=#82b366;" edge="1" parent="2nwuJbsm_z7F0_B4Owl_-185">
          <mxGeometry width="50" height="50" relative="1" as="geometry">
            <mxPoint x="10" y="70" as="sourcePoint" />
            <mxPoint x="30" y="10" as="targetPoint" />
          </mxGeometry>
        </mxCell>
        <mxCell id="2nwuJbsm_z7F0_B4Owl_-209" value="" style="group;flipH=0;direction=north;" vertex="1" connectable="0" parent="1">
          <mxGeometry x="210" y="210" width="80" height="80" as="geometry" />
        </mxCell>
        <mxCell id="2nwuJbsm_z7F0_B4Owl_-210" value="" style="group;direction=north;" vertex="1" connectable="0" parent="2nwuJbsm_z7F0_B4Owl_-209">
          <mxGeometry width="80" height="80" as="geometry" />
        </mxCell>
        <mxCell id="2nwuJbsm_z7F0_B4Owl_-211" value="" style="whiteSpace=wrap;html=1;aspect=fixed;fillColor=light-dark(#eaf1df, #1F2F1E);strokeColor=none;direction=north;" vertex="1" parent="2nwuJbsm_z7F0_B4Owl_-210">
          <mxGeometry width="80" height="80" as="geometry" />
        </mxCell>
        <mxCell id="2nwuJbsm_z7F0_B4Owl_-212" value="" style="endArrow=none;html=1;rounded=0;exitX=1;exitY=0.25;exitDx=0;exitDy=0;entryX=0;entryY=0.25;entryDx=0;entryDy=0;strokeWidth=2;strokeColor=#FFFFFF;" edge="1" parent="2nwuJbsm_z7F0_B4Owl_-210" source="2nwuJbsm_z7F0_B4Owl_-211" target="2nwuJbsm_z7F0_B4Owl_-211">
          <mxGeometry width="50" height="50" relative="1" as="geometry">
            <mxPoint x="80" y="200" as="sourcePoint" />
            <mxPoint x="30" y="250" as="targetPoint" />
          </mxGeometry>
        </mxCell>
        <mxCell id="2nwuJbsm_z7F0_B4Owl_-213" value="" style="endArrow=none;html=1;rounded=0;exitX=1;exitY=0.5;exitDx=0;exitDy=0;entryX=0;entryY=0.5;entryDx=0;entryDy=0;strokeColor=#FFFFFF;strokeWidth=2;" edge="1" parent="2nwuJbsm_z7F0_B4Owl_-210" source="2nwuJbsm_z7F0_B4Owl_-211" target="2nwuJbsm_z7F0_B4Owl_-211">
          <mxGeometry width="50" height="50" relative="1" as="geometry">
            <mxPoint x="190" y="190" as="sourcePoint" />
            <mxPoint x="110" y="190" as="targetPoint" />
          </mxGeometry>
        </mxCell>
        <mxCell id="2nwuJbsm_z7F0_B4Owl_-214" value="" style="endArrow=none;html=1;rounded=0;exitX=1;exitY=0.75;exitDx=0;exitDy=0;entryX=0;entryY=0.75;entryDx=0;entryDy=0;strokeWidth=2;strokeColor=#FFFFFF;" edge="1" parent="2nwuJbsm_z7F0_B4Owl_-210" source="2nwuJbsm_z7F0_B4Owl_-211" target="2nwuJbsm_z7F0_B4Owl_-211">
          <mxGeometry width="50" height="50" relative="1" as="geometry">
            <mxPoint x="230" y="120" as="sourcePoint" />
            <mxPoint x="150" y="120" as="targetPoint" />
          </mxGeometry>
        </mxCell>
        <mxCell id="2nwuJbsm_z7F0_B4Owl_-215" value="" style="endArrow=none;html=1;rounded=0;exitX=0.25;exitY=0;exitDx=0;exitDy=0;entryX=0.25;entryY=1;entryDx=0;entryDy=0;strokeWidth=2;strokeColor=#FFFFFF;" edge="1" parent="2nwuJbsm_z7F0_B4Owl_-210" source="2nwuJbsm_z7F0_B4Owl_-211" target="2nwuJbsm_z7F0_B4Owl_-211">
          <mxGeometry width="50" height="50" relative="1" as="geometry">
            <mxPoint x="200" y="120" as="sourcePoint" />
            <mxPoint x="120" y="120" as="targetPoint" />
          </mxGeometry>
        </mxCell>
        <mxCell id="2nwuJbsm_z7F0_B4Owl_-216" value="" style="endArrow=none;html=1;rounded=0;exitX=0.5;exitY=0;exitDx=0;exitDy=0;entryX=0.5;entryY=1;entryDx=0;entryDy=0;strokeWidth=2;strokeColor=#FFFFFF;" edge="1" parent="2nwuJbsm_z7F0_B4Owl_-210" source="2nwuJbsm_z7F0_B4Owl_-211" target="2nwuJbsm_z7F0_B4Owl_-211">
          <mxGeometry width="50" height="50" relative="1" as="geometry">
            <mxPoint x="260" y="110" as="sourcePoint" />
            <mxPoint x="180" y="110" as="targetPoint" />
          </mxGeometry>
        </mxCell>
        <mxCell id="2nwuJbsm_z7F0_B4Owl_-217" value="" style="endArrow=none;html=1;rounded=0;exitX=0.75;exitY=0;exitDx=0;exitDy=0;entryX=0.75;entryY=1;entryDx=0;entryDy=0;strokeWidth=2;strokeColor=#FFFFFF;" edge="1" parent="2nwuJbsm_z7F0_B4Owl_-210" source="2nwuJbsm_z7F0_B4Owl_-211" target="2nwuJbsm_z7F0_B4Owl_-211">
          <mxGeometry width="50" height="50" relative="1" as="geometry">
            <mxPoint x="270" y="90" as="sourcePoint" />
            <mxPoint x="190" y="90" as="targetPoint" />
          </mxGeometry>
        </mxCell>
        <mxCell id="2nwuJbsm_z7F0_B4Owl_-218" value="" style="endArrow=classic;html=1;rounded=0;endSize=4;fillColor=#d5e8d4;strokeColor=#82b366;" edge="1" parent="2nwuJbsm_z7F0_B4Owl_-210">
          <mxGeometry width="50" height="50" relative="1" as="geometry">
            <mxPoint x="10" y="10" as="sourcePoint" />
            <mxPoint x="30" y="10" as="targetPoint" />
          </mxGeometry>
        </mxCell>
        <mxCell id="2nwuJbsm_z7F0_B4Owl_-219" value="" style="endArrow=classic;html=1;rounded=0;endSize=4;fillColor=#d5e8d4;strokeColor=#82b366;" edge="1" parent="2nwuJbsm_z7F0_B4Owl_-210">
          <mxGeometry width="50" height="50" relative="1" as="geometry">
            <mxPoint x="30" y="10" as="sourcePoint" />
            <mxPoint x="50" y="10" as="targetPoint" />
          </mxGeometry>
        </mxCell>
        <mxCell id="2nwuJbsm_z7F0_B4Owl_-220" value="" style="endArrow=classic;html=1;rounded=0;endSize=4;fillColor=#d5e8d4;strokeColor=#82b366;" edge="1" parent="2nwuJbsm_z7F0_B4Owl_-210">
          <mxGeometry width="50" height="50" relative="1" as="geometry">
            <mxPoint x="50" y="10" as="sourcePoint" />
            <mxPoint x="70" y="10" as="targetPoint" />
          </mxGeometry>
        </mxCell>
        <mxCell id="2nwuJbsm_z7F0_B4Owl_-221" value="" style="endArrow=classic;html=1;rounded=0;endSize=4;fillColor=#d5e8d4;strokeColor=#82b366;" edge="1" parent="2nwuJbsm_z7F0_B4Owl_-210">
          <mxGeometry width="50" height="50" relative="1" as="geometry">
            <mxPoint x="10" y="50" as="sourcePoint" />
            <mxPoint x="30" y="50" as="targetPoint" />
          </mxGeometry>
        </mxCell>
        <mxCell id="2nwuJbsm_z7F0_B4Owl_-222" value="" style="endArrow=classic;html=1;rounded=0;endSize=4;fillColor=#d5e8d4;strokeColor=#82b366;" edge="1" parent="2nwuJbsm_z7F0_B4Owl_-210">
          <mxGeometry width="50" height="50" relative="1" as="geometry">
            <mxPoint x="30" y="50" as="sourcePoint" />
            <mxPoint x="50" y="50" as="targetPoint" />
          </mxGeometry>
        </mxCell>
        <mxCell id="2nwuJbsm_z7F0_B4Owl_-223" value="" style="endArrow=classic;html=1;rounded=0;endSize=4;fillColor=#d5e8d4;strokeColor=#82b366;" edge="1" parent="2nwuJbsm_z7F0_B4Owl_-210">
          <mxGeometry width="50" height="50" relative="1" as="geometry">
            <mxPoint x="50" y="50" as="sourcePoint" />
            <mxPoint x="70" y="50" as="targetPoint" />
          </mxGeometry>
        </mxCell>
        <mxCell id="2nwuJbsm_z7F0_B4Owl_-224" value="" style="endArrow=classic;html=1;rounded=0;endSize=4;fillColor=#d5e8d4;strokeColor=#82b366;" edge="1" parent="2nwuJbsm_z7F0_B4Owl_-210">
          <mxGeometry width="50" height="50" relative="1" as="geometry">
            <mxPoint x="70" y="30" as="sourcePoint" />
            <mxPoint x="50" y="30" as="targetPoint" />
          </mxGeometry>
        </mxCell>
        <mxCell id="2nwuJbsm_z7F0_B4Owl_-225" value="" style="endArrow=classic;html=1;rounded=0;endSize=4;fillColor=#d5e8d4;strokeColor=#82b366;" edge="1" parent="2nwuJbsm_z7F0_B4Owl_-210">
          <mxGeometry width="50" height="50" relative="1" as="geometry">
            <mxPoint x="50" y="30" as="sourcePoint" />
            <mxPoint x="30" y="30" as="targetPoint" />
          </mxGeometry>
        </mxCell>
        <mxCell id="2nwuJbsm_z7F0_B4Owl_-226" value="" style="endArrow=classic;html=1;rounded=0;endSize=4;fillColor=#d5e8d4;strokeColor=#82b366;" edge="1" parent="2nwuJbsm_z7F0_B4Owl_-210">
          <mxGeometry width="50" height="50" relative="1" as="geometry">
            <mxPoint x="30" y="30" as="sourcePoint" />
            <mxPoint x="10" y="30" as="targetPoint" />
          </mxGeometry>
        </mxCell>
        <mxCell id="2nwuJbsm_z7F0_B4Owl_-227" value="" style="endArrow=classic;html=1;rounded=0;endSize=4;fillColor=#d5e8d4;strokeColor=#82b366;" edge="1" parent="2nwuJbsm_z7F0_B4Owl_-210">
          <mxGeometry width="50" height="50" relative="1" as="geometry">
            <mxPoint x="70" y="70" as="sourcePoint" />
            <mxPoint x="50" y="70" as="targetPoint" />
          </mxGeometry>
        </mxCell>
        <mxCell id="2nwuJbsm_z7F0_B4Owl_-228" value="" style="endArrow=classic;html=1;rounded=0;endSize=4;fillColor=#d5e8d4;strokeColor=#82b366;" edge="1" parent="2nwuJbsm_z7F0_B4Owl_-210">
          <mxGeometry width="50" height="50" relative="1" as="geometry">
            <mxPoint x="50" y="70" as="sourcePoint" />
            <mxPoint x="30" y="70" as="targetPoint" />
          </mxGeometry>
        </mxCell>
        <mxCell id="2nwuJbsm_z7F0_B4Owl_-229" value="" style="endArrow=classic;html=1;rounded=0;endSize=4;fillColor=#d5e8d4;strokeColor=#82b366;" edge="1" parent="2nwuJbsm_z7F0_B4Owl_-210">
          <mxGeometry width="50" height="50" relative="1" as="geometry">
            <mxPoint x="30" y="70" as="sourcePoint" />
            <mxPoint x="10" y="70" as="targetPoint" />
          </mxGeometry>
        </mxCell>
        <mxCell id="2nwuJbsm_z7F0_B4Owl_-230" value="" style="endArrow=none;dashed=1;html=1;rounded=0;fillColor=#d5e8d4;strokeColor=#82b366;" edge="1" parent="2nwuJbsm_z7F0_B4Owl_-209">
          <mxGeometry width="50" height="50" relative="1" as="geometry">
            <mxPoint x="10" y="10" as="sourcePoint" />
            <mxPoint x="10" y="30" as="targetPoint" />
          </mxGeometry>
        </mxCell>
        <mxCell id="2nwuJbsm_z7F0_B4Owl_-231" value="" style="endArrow=none;dashed=1;html=1;rounded=0;fillColor=#d5e8d4;strokeColor=#82b366;" edge="1" parent="2nwuJbsm_z7F0_B4Owl_-209">
          <mxGeometry width="50" height="50" relative="1" as="geometry">
            <mxPoint x="70" y="30" as="sourcePoint" />
            <mxPoint x="70" y="50" as="targetPoint" />
          </mxGeometry>
        </mxCell>
        <mxCell id="2nwuJbsm_z7F0_B4Owl_-232" value="" style="endArrow=none;dashed=1;html=1;rounded=0;fillColor=#d5e8d4;strokeColor=#82b366;" edge="1" parent="2nwuJbsm_z7F0_B4Owl_-209">
          <mxGeometry width="50" height="50" relative="1" as="geometry">
            <mxPoint x="10" y="50" as="sourcePoint" />
            <mxPoint x="10" y="70" as="targetPoint" />
          </mxGeometry>
        </mxCell>
        <mxCell id="2nwuJbsm_z7F0_B4Owl_-233" value="" style="group" vertex="1" connectable="0" parent="1">
          <mxGeometry x="120" y="210" width="80" height="80" as="geometry" />
        </mxCell>
        <mxCell id="2nwuJbsm_z7F0_B4Owl_-234" value="" style="group" vertex="1" connectable="0" parent="2nwuJbsm_z7F0_B4Owl_-233">
          <mxGeometry width="80" height="80" as="geometry" />
        </mxCell>
        <mxCell id="2nwuJbsm_z7F0_B4Owl_-235" value="" style="whiteSpace=wrap;html=1;aspect=fixed;fillColor=light-dark(#eaf1df, #1F2F1E);strokeColor=none;" vertex="1" parent="2nwuJbsm_z7F0_B4Owl_-234">
          <mxGeometry width="80" height="80" as="geometry" />
        </mxCell>
        <mxCell id="2nwuJbsm_z7F0_B4Owl_-236" value="" style="endArrow=none;html=1;rounded=0;exitX=0;exitY=0.25;exitDx=0;exitDy=0;entryX=1;entryY=0.25;entryDx=0;entryDy=0;strokeWidth=2;strokeColor=#FFFFFF;" edge="1" parent="2nwuJbsm_z7F0_B4Owl_-234" source="2nwuJbsm_z7F0_B4Owl_-235" target="2nwuJbsm_z7F0_B4Owl_-235">
          <mxGeometry width="50" height="50" relative="1" as="geometry">
            <mxPoint x="30" y="250" as="sourcePoint" />
            <mxPoint x="80" y="200" as="targetPoint" />
          </mxGeometry>
        </mxCell>
        <mxCell id="2nwuJbsm_z7F0_B4Owl_-237" value="" style="endArrow=none;html=1;rounded=0;exitX=0;exitY=0.5;exitDx=0;exitDy=0;entryX=1;entryY=0.5;entryDx=0;entryDy=0;strokeColor=#FFFFFF;strokeWidth=2;" edge="1" parent="2nwuJbsm_z7F0_B4Owl_-234" source="2nwuJbsm_z7F0_B4Owl_-235" target="2nwuJbsm_z7F0_B4Owl_-235">
          <mxGeometry width="50" height="50" relative="1" as="geometry">
            <mxPoint x="110" y="190" as="sourcePoint" />
            <mxPoint x="190" y="190" as="targetPoint" />
          </mxGeometry>
        </mxCell>
        <mxCell id="2nwuJbsm_z7F0_B4Owl_-238" value="" style="endArrow=none;html=1;rounded=0;exitX=0;exitY=0.75;exitDx=0;exitDy=0;entryX=1;entryY=0.75;entryDx=0;entryDy=0;strokeWidth=2;strokeColor=#FFFFFF;" edge="1" parent="2nwuJbsm_z7F0_B4Owl_-234" source="2nwuJbsm_z7F0_B4Owl_-235" target="2nwuJbsm_z7F0_B4Owl_-235">
          <mxGeometry width="50" height="50" relative="1" as="geometry">
            <mxPoint x="150" y="120" as="sourcePoint" />
            <mxPoint x="230" y="120" as="targetPoint" />
          </mxGeometry>
        </mxCell>
        <mxCell id="2nwuJbsm_z7F0_B4Owl_-239" value="" style="endArrow=none;html=1;rounded=0;exitX=0.25;exitY=1;exitDx=0;exitDy=0;entryX=0.25;entryY=0;entryDx=0;entryDy=0;strokeWidth=2;strokeColor=#FFFFFF;" edge="1" parent="2nwuJbsm_z7F0_B4Owl_-234" source="2nwuJbsm_z7F0_B4Owl_-235" target="2nwuJbsm_z7F0_B4Owl_-235">
          <mxGeometry width="50" height="50" relative="1" as="geometry">
            <mxPoint x="120" y="120" as="sourcePoint" />
            <mxPoint x="200" y="120" as="targetPoint" />
          </mxGeometry>
        </mxCell>
        <mxCell id="2nwuJbsm_z7F0_B4Owl_-240" value="" style="endArrow=none;html=1;rounded=0;exitX=0.5;exitY=1;exitDx=0;exitDy=0;entryX=0.5;entryY=0;entryDx=0;entryDy=0;strokeWidth=2;strokeColor=#FFFFFF;" edge="1" parent="2nwuJbsm_z7F0_B4Owl_-234" source="2nwuJbsm_z7F0_B4Owl_-235" target="2nwuJbsm_z7F0_B4Owl_-235">
          <mxGeometry width="50" height="50" relative="1" as="geometry">
            <mxPoint x="180" y="110" as="sourcePoint" />
            <mxPoint x="260" y="110" as="targetPoint" />
          </mxGeometry>
        </mxCell>
        <mxCell id="2nwuJbsm_z7F0_B4Owl_-241" value="" style="endArrow=none;html=1;rounded=0;exitX=0.75;exitY=1;exitDx=0;exitDy=0;entryX=0.75;entryY=0;entryDx=0;entryDy=0;strokeWidth=2;strokeColor=#FFFFFF;" edge="1" parent="2nwuJbsm_z7F0_B4Owl_-234" source="2nwuJbsm_z7F0_B4Owl_-235" target="2nwuJbsm_z7F0_B4Owl_-235">
          <mxGeometry width="50" height="50" relative="1" as="geometry">
            <mxPoint x="190" y="90" as="sourcePoint" />
            <mxPoint x="270" y="90" as="targetPoint" />
          </mxGeometry>
        </mxCell>
        <mxCell id="2nwuJbsm_z7F0_B4Owl_-242" value="" style="endArrow=classic;html=1;rounded=0;endSize=4;fillColor=#d5e8d4;strokeColor=#82b366;" edge="1" parent="2nwuJbsm_z7F0_B4Owl_-234">
          <mxGeometry width="50" height="50" relative="1" as="geometry">
            <mxPoint x="10" y="10" as="sourcePoint" />
            <mxPoint x="30" y="10" as="targetPoint" />
          </mxGeometry>
        </mxCell>
        <mxCell id="2nwuJbsm_z7F0_B4Owl_-243" value="" style="endArrow=classic;html=1;rounded=0;endSize=4;fillColor=#d5e8d4;strokeColor=#82b366;" edge="1" parent="2nwuJbsm_z7F0_B4Owl_-234">
          <mxGeometry width="50" height="50" relative="1" as="geometry">
            <mxPoint x="30" y="10" as="sourcePoint" />
            <mxPoint x="50" y="10" as="targetPoint" />
          </mxGeometry>
        </mxCell>
        <mxCell id="2nwuJbsm_z7F0_B4Owl_-244" value="" style="endArrow=classic;html=1;rounded=0;endSize=4;fillColor=#d5e8d4;strokeColor=#82b366;" edge="1" parent="2nwuJbsm_z7F0_B4Owl_-234">
          <mxGeometry width="50" height="50" relative="1" as="geometry">
            <mxPoint x="50" y="10" as="sourcePoint" />
            <mxPoint x="70" y="10" as="targetPoint" />
          </mxGeometry>
        </mxCell>
        <mxCell id="2nwuJbsm_z7F0_B4Owl_-245" value="" style="endArrow=classic;html=1;rounded=0;endSize=4;fillColor=#d5e8d4;strokeColor=#82b366;" edge="1" parent="2nwuJbsm_z7F0_B4Owl_-234">
          <mxGeometry width="50" height="50" relative="1" as="geometry">
            <mxPoint x="10" y="50" as="sourcePoint" />
            <mxPoint x="30" y="50" as="targetPoint" />
          </mxGeometry>
        </mxCell>
        <mxCell id="2nwuJbsm_z7F0_B4Owl_-246" value="" style="endArrow=classic;html=1;rounded=0;endSize=4;fillColor=#d5e8d4;strokeColor=#82b366;" edge="1" parent="2nwuJbsm_z7F0_B4Owl_-234">
          <mxGeometry width="50" height="50" relative="1" as="geometry">
            <mxPoint x="30" y="50" as="sourcePoint" />
            <mxPoint x="50" y="50" as="targetPoint" />
          </mxGeometry>
        </mxCell>
        <mxCell id="2nwuJbsm_z7F0_B4Owl_-247" value="" style="endArrow=classic;html=1;rounded=0;endSize=4;fillColor=#d5e8d4;strokeColor=#82b366;" edge="1" parent="2nwuJbsm_z7F0_B4Owl_-234">
          <mxGeometry width="50" height="50" relative="1" as="geometry">
            <mxPoint x="50" y="50" as="sourcePoint" />
            <mxPoint x="70" y="50" as="targetPoint" />
          </mxGeometry>
        </mxCell>
        <mxCell id="2nwuJbsm_z7F0_B4Owl_-248" value="" style="endArrow=classic;html=1;rounded=0;endSize=4;fillColor=#d5e8d4;strokeColor=#82b366;" edge="1" parent="2nwuJbsm_z7F0_B4Owl_-234">
          <mxGeometry width="50" height="50" relative="1" as="geometry">
            <mxPoint x="70" y="30" as="sourcePoint" />
            <mxPoint x="50" y="30" as="targetPoint" />
          </mxGeometry>
        </mxCell>
        <mxCell id="2nwuJbsm_z7F0_B4Owl_-249" value="" style="endArrow=classic;html=1;rounded=0;endSize=4;fillColor=#d5e8d4;strokeColor=#82b366;" edge="1" parent="2nwuJbsm_z7F0_B4Owl_-234">
          <mxGeometry width="50" height="50" relative="1" as="geometry">
            <mxPoint x="50" y="30" as="sourcePoint" />
            <mxPoint x="30" y="30" as="targetPoint" />
          </mxGeometry>
        </mxCell>
        <mxCell id="2nwuJbsm_z7F0_B4Owl_-250" value="" style="endArrow=classic;html=1;rounded=0;endSize=4;fillColor=#d5e8d4;strokeColor=#82b366;" edge="1" parent="2nwuJbsm_z7F0_B4Owl_-234">
          <mxGeometry width="50" height="50" relative="1" as="geometry">
            <mxPoint x="30" y="30" as="sourcePoint" />
            <mxPoint x="10" y="30" as="targetPoint" />
          </mxGeometry>
        </mxCell>
        <mxCell id="2nwuJbsm_z7F0_B4Owl_-251" value="" style="endArrow=classic;html=1;rounded=0;endSize=4;fillColor=#d5e8d4;strokeColor=#82b366;" edge="1" parent="2nwuJbsm_z7F0_B4Owl_-234">
          <mxGeometry width="50" height="50" relative="1" as="geometry">
            <mxPoint x="70" y="70" as="sourcePoint" />
            <mxPoint x="50" y="70" as="targetPoint" />
          </mxGeometry>
        </mxCell>
        <mxCell id="2nwuJbsm_z7F0_B4Owl_-252" value="" style="endArrow=classic;html=1;rounded=0;endSize=4;fillColor=#d5e8d4;strokeColor=#82b366;" edge="1" parent="2nwuJbsm_z7F0_B4Owl_-234">
          <mxGeometry width="50" height="50" relative="1" as="geometry">
            <mxPoint x="50" y="70" as="sourcePoint" />
            <mxPoint x="30" y="70" as="targetPoint" />
          </mxGeometry>
        </mxCell>
        <mxCell id="2nwuJbsm_z7F0_B4Owl_-253" value="" style="endArrow=classic;html=1;rounded=0;endSize=4;fillColor=#d5e8d4;strokeColor=#82b366;" edge="1" parent="2nwuJbsm_z7F0_B4Owl_-234">
          <mxGeometry width="50" height="50" relative="1" as="geometry">
            <mxPoint x="30" y="70" as="sourcePoint" />
            <mxPoint x="10" y="70" as="targetPoint" />
          </mxGeometry>
        </mxCell>
        <mxCell id="2nwuJbsm_z7F0_B4Owl_-254" value="" style="endArrow=none;dashed=1;html=1;rounded=0;fillColor=#d5e8d4;strokeColor=#82b366;" edge="1" parent="2nwuJbsm_z7F0_B4Owl_-233">
          <mxGeometry width="50" height="50" relative="1" as="geometry">
            <mxPoint x="70" y="30" as="sourcePoint" />
            <mxPoint x="70" y="10" as="targetPoint" />
          </mxGeometry>
        </mxCell>
        <mxCell id="2nwuJbsm_z7F0_B4Owl_-255" value="" style="endArrow=none;dashed=1;html=1;rounded=0;fillColor=#d5e8d4;strokeColor=#82b366;" edge="1" parent="2nwuJbsm_z7F0_B4Owl_-233">
          <mxGeometry width="50" height="50" relative="1" as="geometry">
            <mxPoint x="10" y="50" as="sourcePoint" />
            <mxPoint x="10" y="30" as="targetPoint" />
          </mxGeometry>
        </mxCell>
        <mxCell id="2nwuJbsm_z7F0_B4Owl_-256" value="" style="endArrow=none;dashed=1;html=1;rounded=0;fillColor=#d5e8d4;strokeColor=#82b366;" edge="1" parent="2nwuJbsm_z7F0_B4Owl_-233">
          <mxGeometry width="50" height="50" relative="1" as="geometry">
            <mxPoint x="70" y="70" as="sourcePoint" />
            <mxPoint x="70" y="50" as="targetPoint" />
          </mxGeometry>
        </mxCell>
        <mxCell id="2nwuJbsm_z7F0_B4Owl_-306" value="" style="group;rotation=90;flipH=1;flipV=1;direction=south;" vertex="1" connectable="0" parent="1">
          <mxGeometry x="390" y="210" width="80" height="80" as="geometry" />
        </mxCell>
        <mxCell id="2nwuJbsm_z7F0_B4Owl_-307" value="" style="group;rotation=90;direction=south;" vertex="1" connectable="0" parent="2nwuJbsm_z7F0_B4Owl_-306">
          <mxGeometry width="80" height="80" as="geometry" />
        </mxCell>
        <mxCell id="2nwuJbsm_z7F0_B4Owl_-308" value="" style="whiteSpace=wrap;html=1;aspect=fixed;fillColor=light-dark(#eaf1df, #1F2F1E);strokeColor=none;rotation=90;direction=south;" vertex="1" parent="2nwuJbsm_z7F0_B4Owl_-307">
          <mxGeometry width="80" height="80" as="geometry" />
        </mxCell>
        <mxCell id="2nwuJbsm_z7F0_B4Owl_-309" value="" style="endArrow=none;html=1;rounded=0;exitX=1;exitY=0.25;exitDx=0;exitDy=0;entryX=0;entryY=0.25;entryDx=0;entryDy=0;strokeWidth=2;strokeColor=#FFFFFF;" edge="1" parent="2nwuJbsm_z7F0_B4Owl_-307" source="2nwuJbsm_z7F0_B4Owl_-308" target="2nwuJbsm_z7F0_B4Owl_-308">
          <mxGeometry width="50" height="50" relative="1" as="geometry">
            <mxPoint x="-120" y="80" as="sourcePoint" />
            <mxPoint x="-170" y="30" as="targetPoint" />
          </mxGeometry>
        </mxCell>
        <mxCell id="2nwuJbsm_z7F0_B4Owl_-310" value="" style="endArrow=none;html=1;rounded=0;exitX=1;exitY=0.5;exitDx=0;exitDy=0;entryX=0;entryY=0.5;entryDx=0;entryDy=0;strokeColor=#FFFFFF;strokeWidth=2;" edge="1" parent="2nwuJbsm_z7F0_B4Owl_-307" source="2nwuJbsm_z7F0_B4Owl_-308" target="2nwuJbsm_z7F0_B4Owl_-308">
          <mxGeometry width="50" height="50" relative="1" as="geometry">
            <mxPoint x="-110" y="190" as="sourcePoint" />
            <mxPoint x="-110" y="110" as="targetPoint" />
          </mxGeometry>
        </mxCell>
        <mxCell id="2nwuJbsm_z7F0_B4Owl_-311" value="" style="endArrow=none;html=1;rounded=0;exitX=1;exitY=0.75;exitDx=0;exitDy=0;entryX=0;entryY=0.75;entryDx=0;entryDy=0;strokeWidth=2;strokeColor=#FFFFFF;" edge="1" parent="2nwuJbsm_z7F0_B4Owl_-307" source="2nwuJbsm_z7F0_B4Owl_-308" target="2nwuJbsm_z7F0_B4Owl_-308">
          <mxGeometry width="50" height="50" relative="1" as="geometry">
            <mxPoint x="-40" y="230" as="sourcePoint" />
            <mxPoint x="-40" y="150" as="targetPoint" />
          </mxGeometry>
        </mxCell>
        <mxCell id="2nwuJbsm_z7F0_B4Owl_-312" value="" style="endArrow=none;html=1;rounded=0;exitX=0.25;exitY=0;exitDx=0;exitDy=0;entryX=0.25;entryY=1;entryDx=0;entryDy=0;strokeWidth=2;strokeColor=#FFFFFF;" edge="1" parent="2nwuJbsm_z7F0_B4Owl_-307" source="2nwuJbsm_z7F0_B4Owl_-308" target="2nwuJbsm_z7F0_B4Owl_-308">
          <mxGeometry width="50" height="50" relative="1" as="geometry">
            <mxPoint x="-40" y="200" as="sourcePoint" />
            <mxPoint x="-40" y="120" as="targetPoint" />
          </mxGeometry>
        </mxCell>
        <mxCell id="2nwuJbsm_z7F0_B4Owl_-313" value="" style="endArrow=none;html=1;rounded=0;exitX=0.5;exitY=0;exitDx=0;exitDy=0;entryX=0.5;entryY=1;entryDx=0;entryDy=0;strokeWidth=2;strokeColor=#FFFFFF;" edge="1" parent="2nwuJbsm_z7F0_B4Owl_-307" source="2nwuJbsm_z7F0_B4Owl_-308" target="2nwuJbsm_z7F0_B4Owl_-308">
          <mxGeometry width="50" height="50" relative="1" as="geometry">
            <mxPoint x="-30" y="260" as="sourcePoint" />
            <mxPoint x="-30" y="180" as="targetPoint" />
          </mxGeometry>
        </mxCell>
        <mxCell id="2nwuJbsm_z7F0_B4Owl_-314" value="" style="endArrow=none;html=1;rounded=0;exitX=0.75;exitY=0;exitDx=0;exitDy=0;entryX=0.75;entryY=1;entryDx=0;entryDy=0;strokeWidth=2;strokeColor=#FFFFFF;" edge="1" parent="2nwuJbsm_z7F0_B4Owl_-307" source="2nwuJbsm_z7F0_B4Owl_-308" target="2nwuJbsm_z7F0_B4Owl_-308">
          <mxGeometry width="50" height="50" relative="1" as="geometry">
            <mxPoint x="-10" y="270" as="sourcePoint" />
            <mxPoint x="-10" y="190" as="targetPoint" />
          </mxGeometry>
        </mxCell>
        <mxCell id="2nwuJbsm_z7F0_B4Owl_-315" value="" style="endArrow=classic;html=1;rounded=0;endSize=4;fillColor=#d5e8d4;strokeColor=#82b366;" edge="1" parent="2nwuJbsm_z7F0_B4Owl_-307">
          <mxGeometry width="50" height="50" relative="1" as="geometry">
            <mxPoint x="70" y="30" as="sourcePoint" />
            <mxPoint x="70" y="10" as="targetPoint" />
          </mxGeometry>
        </mxCell>
        <mxCell id="2nwuJbsm_z7F0_B4Owl_-316" value="" style="endArrow=classic;html=1;rounded=0;endSize=4;fillColor=#d5e8d4;strokeColor=#82b366;" edge="1" parent="2nwuJbsm_z7F0_B4Owl_-307">
          <mxGeometry width="50" height="50" relative="1" as="geometry">
            <mxPoint x="70" y="50" as="sourcePoint" />
            <mxPoint x="70" y="30" as="targetPoint" />
          </mxGeometry>
        </mxCell>
        <mxCell id="2nwuJbsm_z7F0_B4Owl_-317" value="" style="endArrow=classic;html=1;rounded=0;endSize=4;fillColor=#d5e8d4;strokeColor=#82b366;" edge="1" parent="2nwuJbsm_z7F0_B4Owl_-307">
          <mxGeometry width="50" height="50" relative="1" as="geometry">
            <mxPoint x="70" y="70" as="sourcePoint" />
            <mxPoint x="70" y="50" as="targetPoint" />
          </mxGeometry>
        </mxCell>
        <mxCell id="2nwuJbsm_z7F0_B4Owl_-318" value="" style="endArrow=classic;html=1;rounded=0;endSize=4;fillColor=#d5e8d4;strokeColor=#82b366;" edge="1" parent="2nwuJbsm_z7F0_B4Owl_-307">
          <mxGeometry width="50" height="50" relative="1" as="geometry">
            <mxPoint x="30" y="30" as="sourcePoint" />
            <mxPoint x="30" y="10" as="targetPoint" />
          </mxGeometry>
        </mxCell>
        <mxCell id="2nwuJbsm_z7F0_B4Owl_-319" value="" style="endArrow=classic;html=1;rounded=0;endSize=4;fillColor=#d5e8d4;strokeColor=#82b366;" edge="1" parent="2nwuJbsm_z7F0_B4Owl_-307">
          <mxGeometry width="50" height="50" relative="1" as="geometry">
            <mxPoint x="30" y="50" as="sourcePoint" />
            <mxPoint x="30" y="30" as="targetPoint" />
          </mxGeometry>
        </mxCell>
        <mxCell id="2nwuJbsm_z7F0_B4Owl_-320" value="" style="endArrow=classic;html=1;rounded=0;endSize=4;fillColor=#d5e8d4;strokeColor=#82b366;" edge="1" parent="2nwuJbsm_z7F0_B4Owl_-307">
          <mxGeometry width="50" height="50" relative="1" as="geometry">
            <mxPoint x="30" y="70" as="sourcePoint" />
            <mxPoint x="30" y="50" as="targetPoint" />
          </mxGeometry>
        </mxCell>
        <mxCell id="2nwuJbsm_z7F0_B4Owl_-321" value="" style="endArrow=classic;html=1;rounded=0;endSize=4;fillColor=#d5e8d4;strokeColor=#82b366;" edge="1" parent="2nwuJbsm_z7F0_B4Owl_-307">
          <mxGeometry width="50" height="50" relative="1" as="geometry">
            <mxPoint x="50" y="50" as="sourcePoint" />
            <mxPoint x="50" y="70" as="targetPoint" />
          </mxGeometry>
        </mxCell>
        <mxCell id="2nwuJbsm_z7F0_B4Owl_-322" value="" style="endArrow=classic;html=1;rounded=0;endSize=4;fillColor=#d5e8d4;strokeColor=#82b366;" edge="1" parent="2nwuJbsm_z7F0_B4Owl_-307">
          <mxGeometry width="50" height="50" relative="1" as="geometry">
            <mxPoint x="50" y="30" as="sourcePoint" />
            <mxPoint x="50" y="50" as="targetPoint" />
          </mxGeometry>
        </mxCell>
        <mxCell id="2nwuJbsm_z7F0_B4Owl_-323" value="" style="endArrow=classic;html=1;rounded=0;endSize=4;fillColor=#d5e8d4;strokeColor=#82b366;" edge="1" parent="2nwuJbsm_z7F0_B4Owl_-307">
          <mxGeometry width="50" height="50" relative="1" as="geometry">
            <mxPoint x="50" y="10" as="sourcePoint" />
            <mxPoint x="50" y="30" as="targetPoint" />
          </mxGeometry>
        </mxCell>
        <mxCell id="2nwuJbsm_z7F0_B4Owl_-324" value="" style="endArrow=classic;html=1;rounded=0;endSize=4;fillColor=#d5e8d4;strokeColor=#82b366;" edge="1" parent="2nwuJbsm_z7F0_B4Owl_-307">
          <mxGeometry width="50" height="50" relative="1" as="geometry">
            <mxPoint x="10" y="50" as="sourcePoint" />
            <mxPoint x="10" y="70" as="targetPoint" />
          </mxGeometry>
        </mxCell>
        <mxCell id="2nwuJbsm_z7F0_B4Owl_-325" value="" style="endArrow=classic;html=1;rounded=0;endSize=4;fillColor=#d5e8d4;strokeColor=#82b366;" edge="1" parent="2nwuJbsm_z7F0_B4Owl_-307">
          <mxGeometry width="50" height="50" relative="1" as="geometry">
            <mxPoint x="10" y="30" as="sourcePoint" />
            <mxPoint x="10" y="50" as="targetPoint" />
          </mxGeometry>
        </mxCell>
        <mxCell id="2nwuJbsm_z7F0_B4Owl_-326" value="" style="endArrow=classic;html=1;rounded=0;endSize=4;fillColor=#d5e8d4;strokeColor=#82b366;" edge="1" parent="2nwuJbsm_z7F0_B4Owl_-307">
          <mxGeometry width="50" height="50" relative="1" as="geometry">
            <mxPoint x="10" y="10" as="sourcePoint" />
            <mxPoint x="10" y="30" as="targetPoint" />
          </mxGeometry>
        </mxCell>
        <mxCell id="2nwuJbsm_z7F0_B4Owl_-327" value="" style="endArrow=none;dashed=1;html=1;rounded=0;fillColor=#d5e8d4;strokeColor=#82b366;" edge="1" parent="2nwuJbsm_z7F0_B4Owl_-306">
          <mxGeometry width="50" height="50" relative="1" as="geometry">
            <mxPoint x="10" y="10" as="sourcePoint" />
            <mxPoint x="30" y="10" as="targetPoint" />
          </mxGeometry>
        </mxCell>
        <mxCell id="2nwuJbsm_z7F0_B4Owl_-328" value="" style="endArrow=none;dashed=1;html=1;rounded=0;fillColor=#d5e8d4;strokeColor=#82b366;" edge="1" parent="2nwuJbsm_z7F0_B4Owl_-306">
          <mxGeometry width="50" height="50" relative="1" as="geometry">
            <mxPoint x="30" y="70" as="sourcePoint" />
            <mxPoint x="50" y="70" as="targetPoint" />
          </mxGeometry>
        </mxCell>
        <mxCell id="2nwuJbsm_z7F0_B4Owl_-329" value="" style="endArrow=none;dashed=1;html=1;rounded=0;fillColor=#d5e8d4;strokeColor=#82b366;" edge="1" parent="2nwuJbsm_z7F0_B4Owl_-306">
          <mxGeometry width="50" height="50" relative="1" as="geometry">
            <mxPoint x="50" y="10" as="sourcePoint" />
            <mxPoint x="70" y="10" as="targetPoint" />
          </mxGeometry>
        </mxCell>
        <mxCell id="2nwuJbsm_z7F0_B4Owl_-331" value="" style="group;rotation=90;flipH=1;flipV=1;direction=south;" vertex="1" connectable="0" parent="1">
          <mxGeometry x="300" y="210" width="80" height="80" as="geometry" />
        </mxCell>
        <mxCell id="2nwuJbsm_z7F0_B4Owl_-332" value="" style="group;rotation=90;direction=north;" vertex="1" connectable="0" parent="2nwuJbsm_z7F0_B4Owl_-331">
          <mxGeometry width="80" height="80" as="geometry" />
        </mxCell>
        <mxCell id="2nwuJbsm_z7F0_B4Owl_-333" value="" style="whiteSpace=wrap;html=1;aspect=fixed;fillColor=light-dark(#eaf1df, #1F2F1E);strokeColor=none;rotation=90;direction=north;" vertex="1" parent="2nwuJbsm_z7F0_B4Owl_-332">
          <mxGeometry width="80" height="80" as="geometry" />
        </mxCell>
        <mxCell id="2nwuJbsm_z7F0_B4Owl_-334" value="" style="endArrow=none;html=1;rounded=0;exitX=1;exitY=0.25;exitDx=0;exitDy=0;entryX=0;entryY=0.25;entryDx=0;entryDy=0;strokeWidth=2;strokeColor=#FFFFFF;" edge="1" parent="2nwuJbsm_z7F0_B4Owl_-332" source="2nwuJbsm_z7F0_B4Owl_-333" target="2nwuJbsm_z7F0_B4Owl_-333">
          <mxGeometry width="50" height="50" relative="1" as="geometry">
            <mxPoint x="-120" y="80" as="sourcePoint" />
            <mxPoint x="-170" y="30" as="targetPoint" />
          </mxGeometry>
        </mxCell>
        <mxCell id="2nwuJbsm_z7F0_B4Owl_-335" value="" style="endArrow=none;html=1;rounded=0;exitX=1;exitY=0.5;exitDx=0;exitDy=0;entryX=0;entryY=0.5;entryDx=0;entryDy=0;strokeColor=#FFFFFF;strokeWidth=2;" edge="1" parent="2nwuJbsm_z7F0_B4Owl_-332" source="2nwuJbsm_z7F0_B4Owl_-333" target="2nwuJbsm_z7F0_B4Owl_-333">
          <mxGeometry width="50" height="50" relative="1" as="geometry">
            <mxPoint x="-110" y="190" as="sourcePoint" />
            <mxPoint x="-110" y="110" as="targetPoint" />
          </mxGeometry>
        </mxCell>
        <mxCell id="2nwuJbsm_z7F0_B4Owl_-336" value="" style="endArrow=none;html=1;rounded=0;exitX=1;exitY=0.75;exitDx=0;exitDy=0;entryX=0;entryY=0.75;entryDx=0;entryDy=0;strokeWidth=2;strokeColor=#FFFFFF;" edge="1" parent="2nwuJbsm_z7F0_B4Owl_-332" source="2nwuJbsm_z7F0_B4Owl_-333" target="2nwuJbsm_z7F0_B4Owl_-333">
          <mxGeometry width="50" height="50" relative="1" as="geometry">
            <mxPoint x="-40" y="230" as="sourcePoint" />
            <mxPoint x="-40" y="150" as="targetPoint" />
          </mxGeometry>
        </mxCell>
        <mxCell id="2nwuJbsm_z7F0_B4Owl_-337" value="" style="endArrow=none;html=1;rounded=0;exitX=0.25;exitY=0;exitDx=0;exitDy=0;entryX=0.25;entryY=1;entryDx=0;entryDy=0;strokeWidth=2;strokeColor=#FFFFFF;" edge="1" parent="2nwuJbsm_z7F0_B4Owl_-332" source="2nwuJbsm_z7F0_B4Owl_-333" target="2nwuJbsm_z7F0_B4Owl_-333">
          <mxGeometry width="50" height="50" relative="1" as="geometry">
            <mxPoint x="-40" y="200" as="sourcePoint" />
            <mxPoint x="-40" y="120" as="targetPoint" />
          </mxGeometry>
        </mxCell>
        <mxCell id="2nwuJbsm_z7F0_B4Owl_-338" value="" style="endArrow=none;html=1;rounded=0;exitX=0.5;exitY=0;exitDx=0;exitDy=0;entryX=0.5;entryY=1;entryDx=0;entryDy=0;strokeWidth=2;strokeColor=#FFFFFF;" edge="1" parent="2nwuJbsm_z7F0_B4Owl_-332" source="2nwuJbsm_z7F0_B4Owl_-333" target="2nwuJbsm_z7F0_B4Owl_-333">
          <mxGeometry width="50" height="50" relative="1" as="geometry">
            <mxPoint x="-30" y="260" as="sourcePoint" />
            <mxPoint x="-30" y="180" as="targetPoint" />
          </mxGeometry>
        </mxCell>
        <mxCell id="2nwuJbsm_z7F0_B4Owl_-339" value="" style="endArrow=none;html=1;rounded=0;exitX=0.75;exitY=0;exitDx=0;exitDy=0;entryX=0.75;entryY=1;entryDx=0;entryDy=0;strokeWidth=2;strokeColor=#FFFFFF;" edge="1" parent="2nwuJbsm_z7F0_B4Owl_-332" source="2nwuJbsm_z7F0_B4Owl_-333" target="2nwuJbsm_z7F0_B4Owl_-333">
          <mxGeometry width="50" height="50" relative="1" as="geometry">
            <mxPoint x="-10" y="270" as="sourcePoint" />
            <mxPoint x="-10" y="190" as="targetPoint" />
          </mxGeometry>
        </mxCell>
        <mxCell id="2nwuJbsm_z7F0_B4Owl_-340" value="" style="endArrow=classic;html=1;rounded=0;endSize=4;fillColor=#d5e8d4;strokeColor=#82b366;" edge="1" parent="2nwuJbsm_z7F0_B4Owl_-332">
          <mxGeometry width="50" height="50" relative="1" as="geometry">
            <mxPoint x="70" y="30" as="sourcePoint" />
            <mxPoint x="70" y="10" as="targetPoint" />
          </mxGeometry>
        </mxCell>
        <mxCell id="2nwuJbsm_z7F0_B4Owl_-341" value="" style="endArrow=classic;html=1;rounded=0;endSize=4;fillColor=#d5e8d4;strokeColor=#82b366;" edge="1" parent="2nwuJbsm_z7F0_B4Owl_-332">
          <mxGeometry width="50" height="50" relative="1" as="geometry">
            <mxPoint x="70" y="50" as="sourcePoint" />
            <mxPoint x="70" y="30" as="targetPoint" />
          </mxGeometry>
        </mxCell>
        <mxCell id="2nwuJbsm_z7F0_B4Owl_-342" value="" style="endArrow=classic;html=1;rounded=0;endSize=4;fillColor=#d5e8d4;strokeColor=#82b366;" edge="1" parent="2nwuJbsm_z7F0_B4Owl_-332">
          <mxGeometry width="50" height="50" relative="1" as="geometry">
            <mxPoint x="70" y="70" as="sourcePoint" />
            <mxPoint x="70" y="50" as="targetPoint" />
          </mxGeometry>
        </mxCell>
        <mxCell id="2nwuJbsm_z7F0_B4Owl_-343" value="" style="endArrow=classic;html=1;rounded=0;endSize=4;fillColor=#d5e8d4;strokeColor=#82b366;" edge="1" parent="2nwuJbsm_z7F0_B4Owl_-332">
          <mxGeometry width="50" height="50" relative="1" as="geometry">
            <mxPoint x="30" y="30" as="sourcePoint" />
            <mxPoint x="30" y="10" as="targetPoint" />
          </mxGeometry>
        </mxCell>
        <mxCell id="2nwuJbsm_z7F0_B4Owl_-344" value="" style="endArrow=classic;html=1;rounded=0;endSize=4;fillColor=#d5e8d4;strokeColor=#82b366;" edge="1" parent="2nwuJbsm_z7F0_B4Owl_-332">
          <mxGeometry width="50" height="50" relative="1" as="geometry">
            <mxPoint x="30" y="50" as="sourcePoint" />
            <mxPoint x="30" y="30" as="targetPoint" />
          </mxGeometry>
        </mxCell>
        <mxCell id="2nwuJbsm_z7F0_B4Owl_-345" value="" style="endArrow=classic;html=1;rounded=0;endSize=4;fillColor=#d5e8d4;strokeColor=#82b366;" edge="1" parent="2nwuJbsm_z7F0_B4Owl_-332">
          <mxGeometry width="50" height="50" relative="1" as="geometry">
            <mxPoint x="30" y="70" as="sourcePoint" />
            <mxPoint x="30" y="50" as="targetPoint" />
          </mxGeometry>
        </mxCell>
        <mxCell id="2nwuJbsm_z7F0_B4Owl_-346" value="" style="endArrow=classic;html=1;rounded=0;endSize=4;fillColor=#d5e8d4;strokeColor=#82b366;" edge="1" parent="2nwuJbsm_z7F0_B4Owl_-332">
          <mxGeometry width="50" height="50" relative="1" as="geometry">
            <mxPoint x="50" y="50" as="sourcePoint" />
            <mxPoint x="50" y="70" as="targetPoint" />
          </mxGeometry>
        </mxCell>
        <mxCell id="2nwuJbsm_z7F0_B4Owl_-347" value="" style="endArrow=classic;html=1;rounded=0;endSize=4;fillColor=#d5e8d4;strokeColor=#82b366;" edge="1" parent="2nwuJbsm_z7F0_B4Owl_-332">
          <mxGeometry width="50" height="50" relative="1" as="geometry">
            <mxPoint x="50" y="30" as="sourcePoint" />
            <mxPoint x="50" y="50" as="targetPoint" />
          </mxGeometry>
        </mxCell>
        <mxCell id="2nwuJbsm_z7F0_B4Owl_-348" value="" style="endArrow=classic;html=1;rounded=0;endSize=4;fillColor=#d5e8d4;strokeColor=#82b366;" edge="1" parent="2nwuJbsm_z7F0_B4Owl_-332">
          <mxGeometry width="50" height="50" relative="1" as="geometry">
            <mxPoint x="50" y="10" as="sourcePoint" />
            <mxPoint x="50" y="30" as="targetPoint" />
          </mxGeometry>
        </mxCell>
        <mxCell id="2nwuJbsm_z7F0_B4Owl_-349" value="" style="endArrow=classic;html=1;rounded=0;endSize=4;fillColor=#d5e8d4;strokeColor=#82b366;" edge="1" parent="2nwuJbsm_z7F0_B4Owl_-332">
          <mxGeometry width="50" height="50" relative="1" as="geometry">
            <mxPoint x="10" y="50" as="sourcePoint" />
            <mxPoint x="10" y="70" as="targetPoint" />
          </mxGeometry>
        </mxCell>
        <mxCell id="2nwuJbsm_z7F0_B4Owl_-350" value="" style="endArrow=classic;html=1;rounded=0;endSize=4;fillColor=#d5e8d4;strokeColor=#82b366;" edge="1" parent="2nwuJbsm_z7F0_B4Owl_-332">
          <mxGeometry width="50" height="50" relative="1" as="geometry">
            <mxPoint x="10" y="30" as="sourcePoint" />
            <mxPoint x="10" y="50" as="targetPoint" />
          </mxGeometry>
        </mxCell>
        <mxCell id="2nwuJbsm_z7F0_B4Owl_-351" value="" style="endArrow=classic;html=1;rounded=0;endSize=4;fillColor=#d5e8d4;strokeColor=#82b366;" edge="1" parent="2nwuJbsm_z7F0_B4Owl_-332">
          <mxGeometry width="50" height="50" relative="1" as="geometry">
            <mxPoint x="10" y="10" as="sourcePoint" />
            <mxPoint x="10" y="30" as="targetPoint" />
          </mxGeometry>
        </mxCell>
        <mxCell id="2nwuJbsm_z7F0_B4Owl_-352" value="" style="endArrow=none;dashed=1;html=1;rounded=0;fillColor=#d5e8d4;strokeColor=#82b366;exitX=0.125;exitY=0.875;exitDx=0;exitDy=0;exitPerimeter=0;" edge="1" parent="2nwuJbsm_z7F0_B4Owl_-331" source="2nwuJbsm_z7F0_B4Owl_-333">
          <mxGeometry width="50" height="50" relative="1" as="geometry">
            <mxPoint x="10" y="10" as="sourcePoint" />
            <mxPoint x="30" y="70" as="targetPoint" />
          </mxGeometry>
        </mxCell>
        <mxCell id="2nwuJbsm_z7F0_B4Owl_-353" value="" style="endArrow=none;dashed=1;html=1;rounded=0;fillColor=#d5e8d4;strokeColor=#82b366;" edge="1" parent="2nwuJbsm_z7F0_B4Owl_-331">
          <mxGeometry width="50" height="50" relative="1" as="geometry">
            <mxPoint x="30" y="10" as="sourcePoint" />
            <mxPoint x="50" y="10" as="targetPoint" />
          </mxGeometry>
        </mxCell>
        <mxCell id="2nwuJbsm_z7F0_B4Owl_-354" value="" style="endArrow=none;dashed=1;html=1;rounded=0;fillColor=#d5e8d4;strokeColor=#82b366;" edge="1" parent="2nwuJbsm_z7F0_B4Owl_-331">
          <mxGeometry width="50" height="50" relative="1" as="geometry">
            <mxPoint x="50" y="70" as="sourcePoint" />
            <mxPoint x="70" y="70" as="targetPoint" />
          </mxGeometry>
        </mxCell>
        <mxCell id="2nwuJbsm_z7F0_B4Owl_-355" value="" style="group;flipH=0;direction=north;" vertex="1" connectable="0" parent="1">
          <mxGeometry x="450" y="330" width="80" height="80" as="geometry" />
        </mxCell>
        <mxCell id="2nwuJbsm_z7F0_B4Owl_-356" value="" style="group;direction=north;" vertex="1" connectable="0" parent="2nwuJbsm_z7F0_B4Owl_-355">
          <mxGeometry width="80" height="80" as="geometry" />
        </mxCell>
        <mxCell id="2nwuJbsm_z7F0_B4Owl_-357" value="" style="whiteSpace=wrap;html=1;aspect=fixed;fillColor=light-dark(#eaf1df, #1F2F1E);strokeColor=none;direction=north;" vertex="1" parent="2nwuJbsm_z7F0_B4Owl_-356">
          <mxGeometry width="80" height="80" as="geometry" />
        </mxCell>
        <mxCell id="2nwuJbsm_z7F0_B4Owl_-358" value="" style="endArrow=none;html=1;rounded=0;exitX=1;exitY=0.25;exitDx=0;exitDy=0;entryX=0;entryY=0.25;entryDx=0;entryDy=0;strokeWidth=2;strokeColor=#FFFFFF;" edge="1" parent="2nwuJbsm_z7F0_B4Owl_-356" source="2nwuJbsm_z7F0_B4Owl_-357" target="2nwuJbsm_z7F0_B4Owl_-357">
          <mxGeometry width="50" height="50" relative="1" as="geometry">
            <mxPoint x="80" y="200" as="sourcePoint" />
            <mxPoint x="30" y="250" as="targetPoint" />
          </mxGeometry>
        </mxCell>
        <mxCell id="2nwuJbsm_z7F0_B4Owl_-359" value="" style="endArrow=none;html=1;rounded=0;exitX=1;exitY=0.5;exitDx=0;exitDy=0;entryX=0;entryY=0.5;entryDx=0;entryDy=0;strokeColor=#FFFFFF;strokeWidth=2;" edge="1" parent="2nwuJbsm_z7F0_B4Owl_-356" source="2nwuJbsm_z7F0_B4Owl_-357" target="2nwuJbsm_z7F0_B4Owl_-357">
          <mxGeometry width="50" height="50" relative="1" as="geometry">
            <mxPoint x="190" y="190" as="sourcePoint" />
            <mxPoint x="110" y="190" as="targetPoint" />
          </mxGeometry>
        </mxCell>
        <mxCell id="2nwuJbsm_z7F0_B4Owl_-360" value="" style="endArrow=none;html=1;rounded=0;exitX=1;exitY=0.75;exitDx=0;exitDy=0;entryX=0;entryY=0.75;entryDx=0;entryDy=0;strokeWidth=2;strokeColor=#FFFFFF;" edge="1" parent="2nwuJbsm_z7F0_B4Owl_-356" source="2nwuJbsm_z7F0_B4Owl_-357" target="2nwuJbsm_z7F0_B4Owl_-357">
          <mxGeometry width="50" height="50" relative="1" as="geometry">
            <mxPoint x="230" y="120" as="sourcePoint" />
            <mxPoint x="150" y="120" as="targetPoint" />
          </mxGeometry>
        </mxCell>
        <mxCell id="2nwuJbsm_z7F0_B4Owl_-361" value="" style="endArrow=none;html=1;rounded=0;exitX=0.25;exitY=0;exitDx=0;exitDy=0;entryX=0.25;entryY=1;entryDx=0;entryDy=0;strokeWidth=2;strokeColor=#FFFFFF;" edge="1" parent="2nwuJbsm_z7F0_B4Owl_-356" source="2nwuJbsm_z7F0_B4Owl_-357" target="2nwuJbsm_z7F0_B4Owl_-357">
          <mxGeometry width="50" height="50" relative="1" as="geometry">
            <mxPoint x="200" y="120" as="sourcePoint" />
            <mxPoint x="120" y="120" as="targetPoint" />
          </mxGeometry>
        </mxCell>
        <mxCell id="2nwuJbsm_z7F0_B4Owl_-362" value="" style="endArrow=none;html=1;rounded=0;exitX=0.5;exitY=0;exitDx=0;exitDy=0;entryX=0.5;entryY=1;entryDx=0;entryDy=0;strokeWidth=2;strokeColor=#FFFFFF;" edge="1" parent="2nwuJbsm_z7F0_B4Owl_-356" source="2nwuJbsm_z7F0_B4Owl_-357" target="2nwuJbsm_z7F0_B4Owl_-357">
          <mxGeometry width="50" height="50" relative="1" as="geometry">
            <mxPoint x="260" y="110" as="sourcePoint" />
            <mxPoint x="180" y="110" as="targetPoint" />
          </mxGeometry>
        </mxCell>
        <mxCell id="2nwuJbsm_z7F0_B4Owl_-363" value="" style="endArrow=none;html=1;rounded=0;exitX=0.75;exitY=0;exitDx=0;exitDy=0;entryX=0.75;entryY=1;entryDx=0;entryDy=0;strokeWidth=2;strokeColor=#FFFFFF;" edge="1" parent="2nwuJbsm_z7F0_B4Owl_-356" source="2nwuJbsm_z7F0_B4Owl_-357" target="2nwuJbsm_z7F0_B4Owl_-357">
          <mxGeometry width="50" height="50" relative="1" as="geometry">
            <mxPoint x="270" y="90" as="sourcePoint" />
            <mxPoint x="190" y="90" as="targetPoint" />
          </mxGeometry>
        </mxCell>
        <mxCell id="2nwuJbsm_z7F0_B4Owl_-364" value="" style="endArrow=classic;html=1;rounded=0;endSize=4;fillColor=#d5e8d4;strokeColor=#82b366;" edge="1" parent="2nwuJbsm_z7F0_B4Owl_-356">
          <mxGeometry width="50" height="50" relative="1" as="geometry">
            <mxPoint x="10" y="10" as="sourcePoint" />
            <mxPoint x="30" y="10" as="targetPoint" />
          </mxGeometry>
        </mxCell>
        <mxCell id="2nwuJbsm_z7F0_B4Owl_-365" value="" style="endArrow=classic;html=1;rounded=0;endSize=4;fillColor=#d5e8d4;strokeColor=#82b366;" edge="1" parent="2nwuJbsm_z7F0_B4Owl_-356">
          <mxGeometry width="50" height="50" relative="1" as="geometry">
            <mxPoint x="30" y="10" as="sourcePoint" />
            <mxPoint x="50" y="10" as="targetPoint" />
          </mxGeometry>
        </mxCell>
        <mxCell id="2nwuJbsm_z7F0_B4Owl_-366" value="" style="endArrow=classic;html=1;rounded=0;endSize=4;fillColor=#d5e8d4;strokeColor=#82b366;" edge="1" parent="2nwuJbsm_z7F0_B4Owl_-356">
          <mxGeometry width="50" height="50" relative="1" as="geometry">
            <mxPoint x="50" y="10" as="sourcePoint" />
            <mxPoint x="70" y="10" as="targetPoint" />
          </mxGeometry>
        </mxCell>
        <mxCell id="2nwuJbsm_z7F0_B4Owl_-367" value="" style="endArrow=classic;html=1;rounded=0;endSize=4;fillColor=#d5e8d4;strokeColor=#82b366;" edge="1" parent="2nwuJbsm_z7F0_B4Owl_-356">
          <mxGeometry width="50" height="50" relative="1" as="geometry">
            <mxPoint x="10" y="50" as="sourcePoint" />
            <mxPoint x="30" y="50" as="targetPoint" />
          </mxGeometry>
        </mxCell>
        <mxCell id="2nwuJbsm_z7F0_B4Owl_-368" value="" style="endArrow=classic;html=1;rounded=0;endSize=4;fillColor=#d5e8d4;strokeColor=#82b366;" edge="1" parent="2nwuJbsm_z7F0_B4Owl_-356">
          <mxGeometry width="50" height="50" relative="1" as="geometry">
            <mxPoint x="30" y="50" as="sourcePoint" />
            <mxPoint x="50" y="50" as="targetPoint" />
          </mxGeometry>
        </mxCell>
        <mxCell id="2nwuJbsm_z7F0_B4Owl_-369" value="" style="endArrow=classic;html=1;rounded=0;endSize=4;fillColor=#d5e8d4;strokeColor=#82b366;" edge="1" parent="2nwuJbsm_z7F0_B4Owl_-356">
          <mxGeometry width="50" height="50" relative="1" as="geometry">
            <mxPoint x="50" y="50" as="sourcePoint" />
            <mxPoint x="70" y="50" as="targetPoint" />
          </mxGeometry>
        </mxCell>
        <mxCell id="2nwuJbsm_z7F0_B4Owl_-370" value="" style="endArrow=classic;html=1;rounded=0;endSize=4;fillColor=#d5e8d4;strokeColor=#82b366;" edge="1" parent="2nwuJbsm_z7F0_B4Owl_-356">
          <mxGeometry width="50" height="50" relative="1" as="geometry">
            <mxPoint x="70" y="30" as="sourcePoint" />
            <mxPoint x="50" y="30" as="targetPoint" />
          </mxGeometry>
        </mxCell>
        <mxCell id="2nwuJbsm_z7F0_B4Owl_-371" value="" style="endArrow=classic;html=1;rounded=0;endSize=4;fillColor=#d5e8d4;strokeColor=#82b366;" edge="1" parent="2nwuJbsm_z7F0_B4Owl_-356">
          <mxGeometry width="50" height="50" relative="1" as="geometry">
            <mxPoint x="50" y="30" as="sourcePoint" />
            <mxPoint x="30" y="30" as="targetPoint" />
          </mxGeometry>
        </mxCell>
        <mxCell id="2nwuJbsm_z7F0_B4Owl_-372" value="" style="endArrow=classic;html=1;rounded=0;endSize=4;fillColor=#d5e8d4;strokeColor=#82b366;" edge="1" parent="2nwuJbsm_z7F0_B4Owl_-356">
          <mxGeometry width="50" height="50" relative="1" as="geometry">
            <mxPoint x="30" y="30" as="sourcePoint" />
            <mxPoint x="10" y="30" as="targetPoint" />
          </mxGeometry>
        </mxCell>
        <mxCell id="2nwuJbsm_z7F0_B4Owl_-373" value="" style="endArrow=classic;html=1;rounded=0;endSize=4;fillColor=#d5e8d4;strokeColor=#82b366;" edge="1" parent="2nwuJbsm_z7F0_B4Owl_-356">
          <mxGeometry width="50" height="50" relative="1" as="geometry">
            <mxPoint x="70" y="70" as="sourcePoint" />
            <mxPoint x="50" y="70" as="targetPoint" />
          </mxGeometry>
        </mxCell>
        <mxCell id="2nwuJbsm_z7F0_B4Owl_-374" value="" style="endArrow=classic;html=1;rounded=0;endSize=4;fillColor=#d5e8d4;strokeColor=#82b366;" edge="1" parent="2nwuJbsm_z7F0_B4Owl_-356">
          <mxGeometry width="50" height="50" relative="1" as="geometry">
            <mxPoint x="50" y="70" as="sourcePoint" />
            <mxPoint x="30" y="70" as="targetPoint" />
          </mxGeometry>
        </mxCell>
        <mxCell id="2nwuJbsm_z7F0_B4Owl_-375" value="" style="endArrow=classic;html=1;rounded=0;endSize=4;fillColor=#d5e8d4;strokeColor=#82b366;" edge="1" parent="2nwuJbsm_z7F0_B4Owl_-356">
          <mxGeometry width="50" height="50" relative="1" as="geometry">
            <mxPoint x="30" y="70" as="sourcePoint" />
            <mxPoint x="10" y="70" as="targetPoint" />
          </mxGeometry>
        </mxCell>
        <mxCell id="2nwuJbsm_z7F0_B4Owl_-376" value="" style="endArrow=none;dashed=1;html=1;rounded=0;fillColor=#d5e8d4;strokeColor=#82b366;" edge="1" parent="2nwuJbsm_z7F0_B4Owl_-355">
          <mxGeometry width="50" height="50" relative="1" as="geometry">
            <mxPoint x="10" y="10" as="sourcePoint" />
            <mxPoint x="10" y="30" as="targetPoint" />
          </mxGeometry>
        </mxCell>
        <mxCell id="2nwuJbsm_z7F0_B4Owl_-377" value="" style="endArrow=none;dashed=1;html=1;rounded=0;fillColor=#d5e8d4;strokeColor=#82b366;" edge="1" parent="2nwuJbsm_z7F0_B4Owl_-355">
          <mxGeometry width="50" height="50" relative="1" as="geometry">
            <mxPoint x="70" y="30" as="sourcePoint" />
            <mxPoint x="70" y="50" as="targetPoint" />
          </mxGeometry>
        </mxCell>
        <mxCell id="2nwuJbsm_z7F0_B4Owl_-378" value="" style="endArrow=none;dashed=1;html=1;rounded=0;fillColor=#d5e8d4;strokeColor=#82b366;" edge="1" parent="2nwuJbsm_z7F0_B4Owl_-355">
          <mxGeometry width="50" height="50" relative="1" as="geometry">
            <mxPoint x="10" y="50" as="sourcePoint" />
            <mxPoint x="10" y="70" as="targetPoint" />
          </mxGeometry>
        </mxCell>
        <mxCell id="2nwuJbsm_z7F0_B4Owl_-379" value="" style="group" vertex="1" connectable="0" parent="1">
          <mxGeometry x="360" y="330" width="80" height="80" as="geometry" />
        </mxCell>
        <mxCell id="2nwuJbsm_z7F0_B4Owl_-380" value="" style="group" vertex="1" connectable="0" parent="2nwuJbsm_z7F0_B4Owl_-379">
          <mxGeometry width="80" height="80" as="geometry" />
        </mxCell>
        <mxCell id="2nwuJbsm_z7F0_B4Owl_-381" value="" style="whiteSpace=wrap;html=1;aspect=fixed;fillColor=light-dark(#eaf1df, #1F2F1E);strokeColor=none;" vertex="1" parent="2nwuJbsm_z7F0_B4Owl_-380">
          <mxGeometry width="80" height="80" as="geometry" />
        </mxCell>
        <mxCell id="2nwuJbsm_z7F0_B4Owl_-382" value="" style="endArrow=none;html=1;rounded=0;exitX=0;exitY=0.25;exitDx=0;exitDy=0;entryX=1;entryY=0.25;entryDx=0;entryDy=0;strokeWidth=2;strokeColor=#FFFFFF;" edge="1" parent="2nwuJbsm_z7F0_B4Owl_-380" source="2nwuJbsm_z7F0_B4Owl_-381" target="2nwuJbsm_z7F0_B4Owl_-381">
          <mxGeometry width="50" height="50" relative="1" as="geometry">
            <mxPoint x="30" y="250" as="sourcePoint" />
            <mxPoint x="80" y="200" as="targetPoint" />
          </mxGeometry>
        </mxCell>
        <mxCell id="2nwuJbsm_z7F0_B4Owl_-383" value="" style="endArrow=none;html=1;rounded=0;exitX=0;exitY=0.5;exitDx=0;exitDy=0;entryX=1;entryY=0.5;entryDx=0;entryDy=0;strokeColor=#FFFFFF;strokeWidth=2;" edge="1" parent="2nwuJbsm_z7F0_B4Owl_-380" source="2nwuJbsm_z7F0_B4Owl_-381" target="2nwuJbsm_z7F0_B4Owl_-381">
          <mxGeometry width="50" height="50" relative="1" as="geometry">
            <mxPoint x="110" y="190" as="sourcePoint" />
            <mxPoint x="190" y="190" as="targetPoint" />
          </mxGeometry>
        </mxCell>
        <mxCell id="2nwuJbsm_z7F0_B4Owl_-384" value="" style="endArrow=none;html=1;rounded=0;exitX=0;exitY=0.75;exitDx=0;exitDy=0;entryX=1;entryY=0.75;entryDx=0;entryDy=0;strokeWidth=2;strokeColor=#FFFFFF;" edge="1" parent="2nwuJbsm_z7F0_B4Owl_-380" source="2nwuJbsm_z7F0_B4Owl_-381" target="2nwuJbsm_z7F0_B4Owl_-381">
          <mxGeometry width="50" height="50" relative="1" as="geometry">
            <mxPoint x="150" y="120" as="sourcePoint" />
            <mxPoint x="230" y="120" as="targetPoint" />
          </mxGeometry>
        </mxCell>
        <mxCell id="2nwuJbsm_z7F0_B4Owl_-385" value="" style="endArrow=none;html=1;rounded=0;exitX=0.25;exitY=1;exitDx=0;exitDy=0;entryX=0.25;entryY=0;entryDx=0;entryDy=0;strokeWidth=2;strokeColor=#FFFFFF;" edge="1" parent="2nwuJbsm_z7F0_B4Owl_-380" source="2nwuJbsm_z7F0_B4Owl_-381" target="2nwuJbsm_z7F0_B4Owl_-381">
          <mxGeometry width="50" height="50" relative="1" as="geometry">
            <mxPoint x="120" y="120" as="sourcePoint" />
            <mxPoint x="200" y="120" as="targetPoint" />
          </mxGeometry>
        </mxCell>
        <mxCell id="2nwuJbsm_z7F0_B4Owl_-386" value="" style="endArrow=none;html=1;rounded=0;exitX=0.5;exitY=1;exitDx=0;exitDy=0;entryX=0.5;entryY=0;entryDx=0;entryDy=0;strokeWidth=2;strokeColor=#FFFFFF;" edge="1" parent="2nwuJbsm_z7F0_B4Owl_-380" source="2nwuJbsm_z7F0_B4Owl_-381" target="2nwuJbsm_z7F0_B4Owl_-381">
          <mxGeometry width="50" height="50" relative="1" as="geometry">
            <mxPoint x="180" y="110" as="sourcePoint" />
            <mxPoint x="260" y="110" as="targetPoint" />
          </mxGeometry>
        </mxCell>
        <mxCell id="2nwuJbsm_z7F0_B4Owl_-387" value="" style="endArrow=none;html=1;rounded=0;exitX=0.75;exitY=1;exitDx=0;exitDy=0;entryX=0.75;entryY=0;entryDx=0;entryDy=0;strokeWidth=2;strokeColor=#FFFFFF;" edge="1" parent="2nwuJbsm_z7F0_B4Owl_-380" source="2nwuJbsm_z7F0_B4Owl_-381" target="2nwuJbsm_z7F0_B4Owl_-381">
          <mxGeometry width="50" height="50" relative="1" as="geometry">
            <mxPoint x="190" y="90" as="sourcePoint" />
            <mxPoint x="270" y="90" as="targetPoint" />
          </mxGeometry>
        </mxCell>
        <mxCell id="2nwuJbsm_z7F0_B4Owl_-388" value="" style="endArrow=classic;html=1;rounded=0;endSize=4;fillColor=#d5e8d4;strokeColor=#82b366;" edge="1" parent="2nwuJbsm_z7F0_B4Owl_-380">
          <mxGeometry width="50" height="50" relative="1" as="geometry">
            <mxPoint x="10" y="10" as="sourcePoint" />
            <mxPoint x="30" y="10" as="targetPoint" />
          </mxGeometry>
        </mxCell>
        <mxCell id="2nwuJbsm_z7F0_B4Owl_-389" value="" style="endArrow=classic;html=1;rounded=0;endSize=4;fillColor=#d5e8d4;strokeColor=#82b366;" edge="1" parent="2nwuJbsm_z7F0_B4Owl_-380">
          <mxGeometry width="50" height="50" relative="1" as="geometry">
            <mxPoint x="30" y="10" as="sourcePoint" />
            <mxPoint x="50" y="10" as="targetPoint" />
          </mxGeometry>
        </mxCell>
        <mxCell id="2nwuJbsm_z7F0_B4Owl_-390" value="" style="endArrow=classic;html=1;rounded=0;endSize=4;fillColor=#d5e8d4;strokeColor=#82b366;" edge="1" parent="2nwuJbsm_z7F0_B4Owl_-380">
          <mxGeometry width="50" height="50" relative="1" as="geometry">
            <mxPoint x="50" y="10" as="sourcePoint" />
            <mxPoint x="70" y="10" as="targetPoint" />
          </mxGeometry>
        </mxCell>
        <mxCell id="2nwuJbsm_z7F0_B4Owl_-391" value="" style="endArrow=classic;html=1;rounded=0;endSize=4;fillColor=#d5e8d4;strokeColor=#82b366;" edge="1" parent="2nwuJbsm_z7F0_B4Owl_-380">
          <mxGeometry width="50" height="50" relative="1" as="geometry">
            <mxPoint x="10" y="50" as="sourcePoint" />
            <mxPoint x="30" y="50" as="targetPoint" />
          </mxGeometry>
        </mxCell>
        <mxCell id="2nwuJbsm_z7F0_B4Owl_-392" value="" style="endArrow=classic;html=1;rounded=0;endSize=4;fillColor=#d5e8d4;strokeColor=#82b366;" edge="1" parent="2nwuJbsm_z7F0_B4Owl_-380">
          <mxGeometry width="50" height="50" relative="1" as="geometry">
            <mxPoint x="30" y="50" as="sourcePoint" />
            <mxPoint x="50" y="50" as="targetPoint" />
          </mxGeometry>
        </mxCell>
        <mxCell id="2nwuJbsm_z7F0_B4Owl_-393" value="" style="endArrow=classic;html=1;rounded=0;endSize=4;fillColor=#d5e8d4;strokeColor=#82b366;" edge="1" parent="2nwuJbsm_z7F0_B4Owl_-380">
          <mxGeometry width="50" height="50" relative="1" as="geometry">
            <mxPoint x="50" y="50" as="sourcePoint" />
            <mxPoint x="70" y="50" as="targetPoint" />
          </mxGeometry>
        </mxCell>
        <mxCell id="2nwuJbsm_z7F0_B4Owl_-394" value="" style="endArrow=classic;html=1;rounded=0;endSize=4;fillColor=#d5e8d4;strokeColor=#82b366;" edge="1" parent="2nwuJbsm_z7F0_B4Owl_-380">
          <mxGeometry width="50" height="50" relative="1" as="geometry">
            <mxPoint x="70" y="30" as="sourcePoint" />
            <mxPoint x="50" y="30" as="targetPoint" />
          </mxGeometry>
        </mxCell>
        <mxCell id="2nwuJbsm_z7F0_B4Owl_-395" value="" style="endArrow=classic;html=1;rounded=0;endSize=4;fillColor=#d5e8d4;strokeColor=#82b366;" edge="1" parent="2nwuJbsm_z7F0_B4Owl_-380">
          <mxGeometry width="50" height="50" relative="1" as="geometry">
            <mxPoint x="50" y="30" as="sourcePoint" />
            <mxPoint x="30" y="30" as="targetPoint" />
          </mxGeometry>
        </mxCell>
        <mxCell id="2nwuJbsm_z7F0_B4Owl_-396" value="" style="endArrow=classic;html=1;rounded=0;endSize=4;fillColor=#d5e8d4;strokeColor=#82b366;" edge="1" parent="2nwuJbsm_z7F0_B4Owl_-380">
          <mxGeometry width="50" height="50" relative="1" as="geometry">
            <mxPoint x="30" y="30" as="sourcePoint" />
            <mxPoint x="10" y="30" as="targetPoint" />
          </mxGeometry>
        </mxCell>
        <mxCell id="2nwuJbsm_z7F0_B4Owl_-397" value="" style="endArrow=classic;html=1;rounded=0;endSize=4;fillColor=#d5e8d4;strokeColor=#82b366;" edge="1" parent="2nwuJbsm_z7F0_B4Owl_-380">
          <mxGeometry width="50" height="50" relative="1" as="geometry">
            <mxPoint x="70" y="70" as="sourcePoint" />
            <mxPoint x="50" y="70" as="targetPoint" />
          </mxGeometry>
        </mxCell>
        <mxCell id="2nwuJbsm_z7F0_B4Owl_-398" value="" style="endArrow=classic;html=1;rounded=0;endSize=4;fillColor=#d5e8d4;strokeColor=#82b366;" edge="1" parent="2nwuJbsm_z7F0_B4Owl_-380">
          <mxGeometry width="50" height="50" relative="1" as="geometry">
            <mxPoint x="50" y="70" as="sourcePoint" />
            <mxPoint x="30" y="70" as="targetPoint" />
          </mxGeometry>
        </mxCell>
        <mxCell id="2nwuJbsm_z7F0_B4Owl_-399" value="" style="endArrow=classic;html=1;rounded=0;endSize=4;fillColor=#d5e8d4;strokeColor=#82b366;" edge="1" parent="2nwuJbsm_z7F0_B4Owl_-380">
          <mxGeometry width="50" height="50" relative="1" as="geometry">
            <mxPoint x="30" y="70" as="sourcePoint" />
            <mxPoint x="10" y="70" as="targetPoint" />
          </mxGeometry>
        </mxCell>
        <mxCell id="2nwuJbsm_z7F0_B4Owl_-400" value="" style="endArrow=none;dashed=1;html=1;rounded=0;fillColor=#d5e8d4;strokeColor=#82b366;" edge="1" parent="2nwuJbsm_z7F0_B4Owl_-379">
          <mxGeometry width="50" height="50" relative="1" as="geometry">
            <mxPoint x="70" y="30" as="sourcePoint" />
            <mxPoint x="70" y="10" as="targetPoint" />
          </mxGeometry>
        </mxCell>
        <mxCell id="2nwuJbsm_z7F0_B4Owl_-401" value="" style="endArrow=none;dashed=1;html=1;rounded=0;fillColor=#d5e8d4;strokeColor=#82b366;" edge="1" parent="2nwuJbsm_z7F0_B4Owl_-379">
          <mxGeometry width="50" height="50" relative="1" as="geometry">
            <mxPoint x="10" y="50" as="sourcePoint" />
            <mxPoint x="10" y="30" as="targetPoint" />
          </mxGeometry>
        </mxCell>
        <mxCell id="2nwuJbsm_z7F0_B4Owl_-402" value="" style="endArrow=none;dashed=1;html=1;rounded=0;fillColor=#d5e8d4;strokeColor=#82b366;" edge="1" parent="2nwuJbsm_z7F0_B4Owl_-379">
          <mxGeometry width="50" height="50" relative="1" as="geometry">
            <mxPoint x="70" y="70" as="sourcePoint" />
            <mxPoint x="70" y="50" as="targetPoint" />
          </mxGeometry>
        </mxCell>
        <mxCell id="2nwuJbsm_z7F0_B4Owl_-403" value="" style="group;rotation=90;flipH=1;flipV=1;direction=south;" vertex="1" connectable="0" parent="1">
          <mxGeometry x="630" y="330" width="80" height="80" as="geometry" />
        </mxCell>
        <mxCell id="2nwuJbsm_z7F0_B4Owl_-404" value="" style="group;rotation=90;direction=south;" vertex="1" connectable="0" parent="2nwuJbsm_z7F0_B4Owl_-403">
          <mxGeometry width="80" height="80" as="geometry" />
        </mxCell>
        <mxCell id="2nwuJbsm_z7F0_B4Owl_-405" value="" style="whiteSpace=wrap;html=1;aspect=fixed;fillColor=light-dark(#eaf1df, #1F2F1E);strokeColor=none;rotation=90;direction=south;" vertex="1" parent="2nwuJbsm_z7F0_B4Owl_-404">
          <mxGeometry width="80" height="80" as="geometry" />
        </mxCell>
        <mxCell id="2nwuJbsm_z7F0_B4Owl_-406" value="" style="endArrow=none;html=1;rounded=0;exitX=1;exitY=0.25;exitDx=0;exitDy=0;entryX=0;entryY=0.25;entryDx=0;entryDy=0;strokeWidth=2;strokeColor=#FFFFFF;" edge="1" parent="2nwuJbsm_z7F0_B4Owl_-404" source="2nwuJbsm_z7F0_B4Owl_-405" target="2nwuJbsm_z7F0_B4Owl_-405">
          <mxGeometry width="50" height="50" relative="1" as="geometry">
            <mxPoint x="-120" y="80" as="sourcePoint" />
            <mxPoint x="-170" y="30" as="targetPoint" />
          </mxGeometry>
        </mxCell>
        <mxCell id="2nwuJbsm_z7F0_B4Owl_-407" value="" style="endArrow=none;html=1;rounded=0;exitX=1;exitY=0.5;exitDx=0;exitDy=0;entryX=0;entryY=0.5;entryDx=0;entryDy=0;strokeColor=#FFFFFF;strokeWidth=2;" edge="1" parent="2nwuJbsm_z7F0_B4Owl_-404" source="2nwuJbsm_z7F0_B4Owl_-405" target="2nwuJbsm_z7F0_B4Owl_-405">
          <mxGeometry width="50" height="50" relative="1" as="geometry">
            <mxPoint x="-110" y="190" as="sourcePoint" />
            <mxPoint x="-110" y="110" as="targetPoint" />
          </mxGeometry>
        </mxCell>
        <mxCell id="2nwuJbsm_z7F0_B4Owl_-408" value="" style="endArrow=none;html=1;rounded=0;exitX=1;exitY=0.75;exitDx=0;exitDy=0;entryX=0;entryY=0.75;entryDx=0;entryDy=0;strokeWidth=2;strokeColor=#FFFFFF;" edge="1" parent="2nwuJbsm_z7F0_B4Owl_-404" source="2nwuJbsm_z7F0_B4Owl_-405" target="2nwuJbsm_z7F0_B4Owl_-405">
          <mxGeometry width="50" height="50" relative="1" as="geometry">
            <mxPoint x="-40" y="230" as="sourcePoint" />
            <mxPoint x="-40" y="150" as="targetPoint" />
          </mxGeometry>
        </mxCell>
        <mxCell id="2nwuJbsm_z7F0_B4Owl_-409" value="" style="endArrow=none;html=1;rounded=0;exitX=0.25;exitY=0;exitDx=0;exitDy=0;entryX=0.25;entryY=1;entryDx=0;entryDy=0;strokeWidth=2;strokeColor=#FFFFFF;" edge="1" parent="2nwuJbsm_z7F0_B4Owl_-404" source="2nwuJbsm_z7F0_B4Owl_-405" target="2nwuJbsm_z7F0_B4Owl_-405">
          <mxGeometry width="50" height="50" relative="1" as="geometry">
            <mxPoint x="-40" y="200" as="sourcePoint" />
            <mxPoint x="-40" y="120" as="targetPoint" />
          </mxGeometry>
        </mxCell>
        <mxCell id="2nwuJbsm_z7F0_B4Owl_-410" value="" style="endArrow=none;html=1;rounded=0;exitX=0.5;exitY=0;exitDx=0;exitDy=0;entryX=0.5;entryY=1;entryDx=0;entryDy=0;strokeWidth=2;strokeColor=#FFFFFF;" edge="1" parent="2nwuJbsm_z7F0_B4Owl_-404" source="2nwuJbsm_z7F0_B4Owl_-405" target="2nwuJbsm_z7F0_B4Owl_-405">
          <mxGeometry width="50" height="50" relative="1" as="geometry">
            <mxPoint x="-30" y="260" as="sourcePoint" />
            <mxPoint x="-30" y="180" as="targetPoint" />
          </mxGeometry>
        </mxCell>
        <mxCell id="2nwuJbsm_z7F0_B4Owl_-411" value="" style="endArrow=none;html=1;rounded=0;exitX=0.75;exitY=0;exitDx=0;exitDy=0;entryX=0.75;entryY=1;entryDx=0;entryDy=0;strokeWidth=2;strokeColor=#FFFFFF;" edge="1" parent="2nwuJbsm_z7F0_B4Owl_-404" source="2nwuJbsm_z7F0_B4Owl_-405" target="2nwuJbsm_z7F0_B4Owl_-405">
          <mxGeometry width="50" height="50" relative="1" as="geometry">
            <mxPoint x="-10" y="270" as="sourcePoint" />
            <mxPoint x="-10" y="190" as="targetPoint" />
          </mxGeometry>
        </mxCell>
        <mxCell id="2nwuJbsm_z7F0_B4Owl_-412" value="" style="endArrow=classic;html=1;rounded=0;endSize=4;fillColor=#d5e8d4;strokeColor=#82b366;" edge="1" parent="2nwuJbsm_z7F0_B4Owl_-404">
          <mxGeometry width="50" height="50" relative="1" as="geometry">
            <mxPoint x="70" y="30" as="sourcePoint" />
            <mxPoint x="70" y="10" as="targetPoint" />
          </mxGeometry>
        </mxCell>
        <mxCell id="2nwuJbsm_z7F0_B4Owl_-413" value="" style="endArrow=classic;html=1;rounded=0;endSize=4;fillColor=#d5e8d4;strokeColor=#82b366;" edge="1" parent="2nwuJbsm_z7F0_B4Owl_-404">
          <mxGeometry width="50" height="50" relative="1" as="geometry">
            <mxPoint x="70" y="50" as="sourcePoint" />
            <mxPoint x="70" y="30" as="targetPoint" />
          </mxGeometry>
        </mxCell>
        <mxCell id="2nwuJbsm_z7F0_B4Owl_-414" value="" style="endArrow=classic;html=1;rounded=0;endSize=4;fillColor=#d5e8d4;strokeColor=#82b366;" edge="1" parent="2nwuJbsm_z7F0_B4Owl_-404">
          <mxGeometry width="50" height="50" relative="1" as="geometry">
            <mxPoint x="70" y="70" as="sourcePoint" />
            <mxPoint x="70" y="50" as="targetPoint" />
          </mxGeometry>
        </mxCell>
        <mxCell id="2nwuJbsm_z7F0_B4Owl_-415" value="" style="endArrow=classic;html=1;rounded=0;endSize=4;fillColor=#d5e8d4;strokeColor=#82b366;" edge="1" parent="2nwuJbsm_z7F0_B4Owl_-404">
          <mxGeometry width="50" height="50" relative="1" as="geometry">
            <mxPoint x="30" y="30" as="sourcePoint" />
            <mxPoint x="30" y="10" as="targetPoint" />
          </mxGeometry>
        </mxCell>
        <mxCell id="2nwuJbsm_z7F0_B4Owl_-416" value="" style="endArrow=classic;html=1;rounded=0;endSize=4;fillColor=#d5e8d4;strokeColor=#82b366;" edge="1" parent="2nwuJbsm_z7F0_B4Owl_-404">
          <mxGeometry width="50" height="50" relative="1" as="geometry">
            <mxPoint x="30" y="50" as="sourcePoint" />
            <mxPoint x="30" y="30" as="targetPoint" />
          </mxGeometry>
        </mxCell>
        <mxCell id="2nwuJbsm_z7F0_B4Owl_-417" value="" style="endArrow=classic;html=1;rounded=0;endSize=4;fillColor=#d5e8d4;strokeColor=#82b366;" edge="1" parent="2nwuJbsm_z7F0_B4Owl_-404">
          <mxGeometry width="50" height="50" relative="1" as="geometry">
            <mxPoint x="30" y="70" as="sourcePoint" />
            <mxPoint x="30" y="50" as="targetPoint" />
          </mxGeometry>
        </mxCell>
        <mxCell id="2nwuJbsm_z7F0_B4Owl_-418" value="" style="endArrow=classic;html=1;rounded=0;endSize=4;fillColor=#d5e8d4;strokeColor=#82b366;" edge="1" parent="2nwuJbsm_z7F0_B4Owl_-404">
          <mxGeometry width="50" height="50" relative="1" as="geometry">
            <mxPoint x="50" y="50" as="sourcePoint" />
            <mxPoint x="50" y="70" as="targetPoint" />
          </mxGeometry>
        </mxCell>
        <mxCell id="2nwuJbsm_z7F0_B4Owl_-419" value="" style="endArrow=classic;html=1;rounded=0;endSize=4;fillColor=#d5e8d4;strokeColor=#82b366;" edge="1" parent="2nwuJbsm_z7F0_B4Owl_-404">
          <mxGeometry width="50" height="50" relative="1" as="geometry">
            <mxPoint x="50" y="30" as="sourcePoint" />
            <mxPoint x="50" y="50" as="targetPoint" />
          </mxGeometry>
        </mxCell>
        <mxCell id="2nwuJbsm_z7F0_B4Owl_-420" value="" style="endArrow=classic;html=1;rounded=0;endSize=4;fillColor=#d5e8d4;strokeColor=#82b366;" edge="1" parent="2nwuJbsm_z7F0_B4Owl_-404">
          <mxGeometry width="50" height="50" relative="1" as="geometry">
            <mxPoint x="50" y="10" as="sourcePoint" />
            <mxPoint x="50" y="30" as="targetPoint" />
          </mxGeometry>
        </mxCell>
        <mxCell id="2nwuJbsm_z7F0_B4Owl_-421" value="" style="endArrow=classic;html=1;rounded=0;endSize=4;fillColor=#d5e8d4;strokeColor=#82b366;" edge="1" parent="2nwuJbsm_z7F0_B4Owl_-404">
          <mxGeometry width="50" height="50" relative="1" as="geometry">
            <mxPoint x="10" y="50" as="sourcePoint" />
            <mxPoint x="10" y="70" as="targetPoint" />
          </mxGeometry>
        </mxCell>
        <mxCell id="2nwuJbsm_z7F0_B4Owl_-422" value="" style="endArrow=classic;html=1;rounded=0;endSize=4;fillColor=#d5e8d4;strokeColor=#82b366;" edge="1" parent="2nwuJbsm_z7F0_B4Owl_-404">
          <mxGeometry width="50" height="50" relative="1" as="geometry">
            <mxPoint x="10" y="30" as="sourcePoint" />
            <mxPoint x="10" y="50" as="targetPoint" />
          </mxGeometry>
        </mxCell>
        <mxCell id="2nwuJbsm_z7F0_B4Owl_-423" value="" style="endArrow=classic;html=1;rounded=0;endSize=4;fillColor=#d5e8d4;strokeColor=#82b366;" edge="1" parent="2nwuJbsm_z7F0_B4Owl_-404">
          <mxGeometry width="50" height="50" relative="1" as="geometry">
            <mxPoint x="10" y="10" as="sourcePoint" />
            <mxPoint x="10" y="30" as="targetPoint" />
          </mxGeometry>
        </mxCell>
        <mxCell id="2nwuJbsm_z7F0_B4Owl_-424" value="" style="endArrow=none;dashed=1;html=1;rounded=0;fillColor=#d5e8d4;strokeColor=#82b366;" edge="1" parent="2nwuJbsm_z7F0_B4Owl_-403">
          <mxGeometry width="50" height="50" relative="1" as="geometry">
            <mxPoint x="10" y="10" as="sourcePoint" />
            <mxPoint x="30" y="10" as="targetPoint" />
          </mxGeometry>
        </mxCell>
        <mxCell id="2nwuJbsm_z7F0_B4Owl_-425" value="" style="endArrow=none;dashed=1;html=1;rounded=0;fillColor=#d5e8d4;strokeColor=#82b366;" edge="1" parent="2nwuJbsm_z7F0_B4Owl_-403">
          <mxGeometry width="50" height="50" relative="1" as="geometry">
            <mxPoint x="30" y="70" as="sourcePoint" />
            <mxPoint x="50" y="70" as="targetPoint" />
          </mxGeometry>
        </mxCell>
        <mxCell id="2nwuJbsm_z7F0_B4Owl_-426" value="" style="endArrow=none;dashed=1;html=1;rounded=0;fillColor=#d5e8d4;strokeColor=#82b366;" edge="1" parent="2nwuJbsm_z7F0_B4Owl_-403">
          <mxGeometry width="50" height="50" relative="1" as="geometry">
            <mxPoint x="50" y="10" as="sourcePoint" />
            <mxPoint x="70" y="10" as="targetPoint" />
          </mxGeometry>
        </mxCell>
        <mxCell id="2nwuJbsm_z7F0_B4Owl_-427" value="" style="group;rotation=90;flipH=1;flipV=1;direction=south;" vertex="1" connectable="0" parent="1">
          <mxGeometry x="540" y="330" width="80" height="80" as="geometry" />
        </mxCell>
        <mxCell id="2nwuJbsm_z7F0_B4Owl_-428" value="" style="group;rotation=90;direction=north;" vertex="1" connectable="0" parent="2nwuJbsm_z7F0_B4Owl_-427">
          <mxGeometry width="80" height="80" as="geometry" />
        </mxCell>
        <mxCell id="2nwuJbsm_z7F0_B4Owl_-429" value="" style="whiteSpace=wrap;html=1;aspect=fixed;fillColor=light-dark(#eaf1df, #1F2F1E);strokeColor=none;rotation=90;direction=north;" vertex="1" parent="2nwuJbsm_z7F0_B4Owl_-428">
          <mxGeometry width="80" height="80" as="geometry" />
        </mxCell>
        <mxCell id="2nwuJbsm_z7F0_B4Owl_-430" value="" style="endArrow=none;html=1;rounded=0;exitX=1;exitY=0.25;exitDx=0;exitDy=0;entryX=0;entryY=0.25;entryDx=0;entryDy=0;strokeWidth=2;strokeColor=#FFFFFF;" edge="1" parent="2nwuJbsm_z7F0_B4Owl_-428" source="2nwuJbsm_z7F0_B4Owl_-429" target="2nwuJbsm_z7F0_B4Owl_-429">
          <mxGeometry width="50" height="50" relative="1" as="geometry">
            <mxPoint x="-120" y="80" as="sourcePoint" />
            <mxPoint x="-170" y="30" as="targetPoint" />
          </mxGeometry>
        </mxCell>
        <mxCell id="2nwuJbsm_z7F0_B4Owl_-431" value="" style="endArrow=none;html=1;rounded=0;exitX=1;exitY=0.5;exitDx=0;exitDy=0;entryX=0;entryY=0.5;entryDx=0;entryDy=0;strokeColor=#FFFFFF;strokeWidth=2;" edge="1" parent="2nwuJbsm_z7F0_B4Owl_-428" source="2nwuJbsm_z7F0_B4Owl_-429" target="2nwuJbsm_z7F0_B4Owl_-429">
          <mxGeometry width="50" height="50" relative="1" as="geometry">
            <mxPoint x="-110" y="190" as="sourcePoint" />
            <mxPoint x="-110" y="110" as="targetPoint" />
          </mxGeometry>
        </mxCell>
        <mxCell id="2nwuJbsm_z7F0_B4Owl_-432" value="" style="endArrow=none;html=1;rounded=0;exitX=1;exitY=0.75;exitDx=0;exitDy=0;entryX=0;entryY=0.75;entryDx=0;entryDy=0;strokeWidth=2;strokeColor=#FFFFFF;" edge="1" parent="2nwuJbsm_z7F0_B4Owl_-428" source="2nwuJbsm_z7F0_B4Owl_-429" target="2nwuJbsm_z7F0_B4Owl_-429">
          <mxGeometry width="50" height="50" relative="1" as="geometry">
            <mxPoint x="-40" y="230" as="sourcePoint" />
            <mxPoint x="-40" y="150" as="targetPoint" />
          </mxGeometry>
        </mxCell>
        <mxCell id="2nwuJbsm_z7F0_B4Owl_-433" value="" style="endArrow=none;html=1;rounded=0;exitX=0.25;exitY=0;exitDx=0;exitDy=0;entryX=0.25;entryY=1;entryDx=0;entryDy=0;strokeWidth=2;strokeColor=#FFFFFF;" edge="1" parent="2nwuJbsm_z7F0_B4Owl_-428" source="2nwuJbsm_z7F0_B4Owl_-429" target="2nwuJbsm_z7F0_B4Owl_-429">
          <mxGeometry width="50" height="50" relative="1" as="geometry">
            <mxPoint x="-40" y="200" as="sourcePoint" />
            <mxPoint x="-40" y="120" as="targetPoint" />
          </mxGeometry>
        </mxCell>
        <mxCell id="2nwuJbsm_z7F0_B4Owl_-434" value="" style="endArrow=none;html=1;rounded=0;exitX=0.5;exitY=0;exitDx=0;exitDy=0;entryX=0.5;entryY=1;entryDx=0;entryDy=0;strokeWidth=2;strokeColor=#FFFFFF;" edge="1" parent="2nwuJbsm_z7F0_B4Owl_-428" source="2nwuJbsm_z7F0_B4Owl_-429" target="2nwuJbsm_z7F0_B4Owl_-429">
          <mxGeometry width="50" height="50" relative="1" as="geometry">
            <mxPoint x="-30" y="260" as="sourcePoint" />
            <mxPoint x="-30" y="180" as="targetPoint" />
          </mxGeometry>
        </mxCell>
        <mxCell id="2nwuJbsm_z7F0_B4Owl_-435" value="" style="endArrow=none;html=1;rounded=0;exitX=0.75;exitY=0;exitDx=0;exitDy=0;entryX=0.75;entryY=1;entryDx=0;entryDy=0;strokeWidth=2;strokeColor=#FFFFFF;" edge="1" parent="2nwuJbsm_z7F0_B4Owl_-428" source="2nwuJbsm_z7F0_B4Owl_-429" target="2nwuJbsm_z7F0_B4Owl_-429">
          <mxGeometry width="50" height="50" relative="1" as="geometry">
            <mxPoint x="-10" y="270" as="sourcePoint" />
            <mxPoint x="-10" y="190" as="targetPoint" />
          </mxGeometry>
        </mxCell>
        <mxCell id="2nwuJbsm_z7F0_B4Owl_-436" value="" style="endArrow=classic;html=1;rounded=0;endSize=4;fillColor=#d5e8d4;strokeColor=#82b366;" edge="1" parent="2nwuJbsm_z7F0_B4Owl_-428">
          <mxGeometry width="50" height="50" relative="1" as="geometry">
            <mxPoint x="70" y="30" as="sourcePoint" />
            <mxPoint x="70" y="10" as="targetPoint" />
          </mxGeometry>
        </mxCell>
        <mxCell id="2nwuJbsm_z7F0_B4Owl_-437" value="" style="endArrow=classic;html=1;rounded=0;endSize=4;fillColor=#d5e8d4;strokeColor=#82b366;" edge="1" parent="2nwuJbsm_z7F0_B4Owl_-428">
          <mxGeometry width="50" height="50" relative="1" as="geometry">
            <mxPoint x="70" y="50" as="sourcePoint" />
            <mxPoint x="70" y="30" as="targetPoint" />
          </mxGeometry>
        </mxCell>
        <mxCell id="2nwuJbsm_z7F0_B4Owl_-438" value="" style="endArrow=classic;html=1;rounded=0;endSize=4;fillColor=#d5e8d4;strokeColor=#82b366;" edge="1" parent="2nwuJbsm_z7F0_B4Owl_-428">
          <mxGeometry width="50" height="50" relative="1" as="geometry">
            <mxPoint x="70" y="70" as="sourcePoint" />
            <mxPoint x="70" y="50" as="targetPoint" />
          </mxGeometry>
        </mxCell>
        <mxCell id="2nwuJbsm_z7F0_B4Owl_-439" value="" style="endArrow=classic;html=1;rounded=0;endSize=4;fillColor=#d5e8d4;strokeColor=#82b366;" edge="1" parent="2nwuJbsm_z7F0_B4Owl_-428">
          <mxGeometry width="50" height="50" relative="1" as="geometry">
            <mxPoint x="30" y="30" as="sourcePoint" />
            <mxPoint x="30" y="10" as="targetPoint" />
          </mxGeometry>
        </mxCell>
        <mxCell id="2nwuJbsm_z7F0_B4Owl_-440" value="" style="endArrow=classic;html=1;rounded=0;endSize=4;fillColor=#d5e8d4;strokeColor=#82b366;" edge="1" parent="2nwuJbsm_z7F0_B4Owl_-428">
          <mxGeometry width="50" height="50" relative="1" as="geometry">
            <mxPoint x="30" y="50" as="sourcePoint" />
            <mxPoint x="30" y="30" as="targetPoint" />
          </mxGeometry>
        </mxCell>
        <mxCell id="2nwuJbsm_z7F0_B4Owl_-441" value="" style="endArrow=classic;html=1;rounded=0;endSize=4;fillColor=#d5e8d4;strokeColor=#82b366;" edge="1" parent="2nwuJbsm_z7F0_B4Owl_-428">
          <mxGeometry width="50" height="50" relative="1" as="geometry">
            <mxPoint x="30" y="70" as="sourcePoint" />
            <mxPoint x="30" y="50" as="targetPoint" />
          </mxGeometry>
        </mxCell>
        <mxCell id="2nwuJbsm_z7F0_B4Owl_-442" value="" style="endArrow=classic;html=1;rounded=0;endSize=4;fillColor=#d5e8d4;strokeColor=#82b366;" edge="1" parent="2nwuJbsm_z7F0_B4Owl_-428">
          <mxGeometry width="50" height="50" relative="1" as="geometry">
            <mxPoint x="50" y="50" as="sourcePoint" />
            <mxPoint x="50" y="70" as="targetPoint" />
          </mxGeometry>
        </mxCell>
        <mxCell id="2nwuJbsm_z7F0_B4Owl_-443" value="" style="endArrow=classic;html=1;rounded=0;endSize=4;fillColor=#d5e8d4;strokeColor=#82b366;" edge="1" parent="2nwuJbsm_z7F0_B4Owl_-428">
          <mxGeometry width="50" height="50" relative="1" as="geometry">
            <mxPoint x="50" y="30" as="sourcePoint" />
            <mxPoint x="50" y="50" as="targetPoint" />
          </mxGeometry>
        </mxCell>
        <mxCell id="2nwuJbsm_z7F0_B4Owl_-444" value="" style="endArrow=classic;html=1;rounded=0;endSize=4;fillColor=#d5e8d4;strokeColor=#82b366;" edge="1" parent="2nwuJbsm_z7F0_B4Owl_-428">
          <mxGeometry width="50" height="50" relative="1" as="geometry">
            <mxPoint x="50" y="10" as="sourcePoint" />
            <mxPoint x="50" y="30" as="targetPoint" />
          </mxGeometry>
        </mxCell>
        <mxCell id="2nwuJbsm_z7F0_B4Owl_-445" value="" style="endArrow=classic;html=1;rounded=0;endSize=4;fillColor=#d5e8d4;strokeColor=#82b366;" edge="1" parent="2nwuJbsm_z7F0_B4Owl_-428">
          <mxGeometry width="50" height="50" relative="1" as="geometry">
            <mxPoint x="10" y="50" as="sourcePoint" />
            <mxPoint x="10" y="70" as="targetPoint" />
          </mxGeometry>
        </mxCell>
        <mxCell id="2nwuJbsm_z7F0_B4Owl_-446" value="" style="endArrow=classic;html=1;rounded=0;endSize=4;fillColor=#d5e8d4;strokeColor=#82b366;" edge="1" parent="2nwuJbsm_z7F0_B4Owl_-428">
          <mxGeometry width="50" height="50" relative="1" as="geometry">
            <mxPoint x="10" y="30" as="sourcePoint" />
            <mxPoint x="10" y="50" as="targetPoint" />
          </mxGeometry>
        </mxCell>
        <mxCell id="2nwuJbsm_z7F0_B4Owl_-447" value="" style="endArrow=classic;html=1;rounded=0;endSize=4;fillColor=#d5e8d4;strokeColor=#82b366;" edge="1" parent="2nwuJbsm_z7F0_B4Owl_-428">
          <mxGeometry width="50" height="50" relative="1" as="geometry">
            <mxPoint x="10" y="10" as="sourcePoint" />
            <mxPoint x="10" y="30" as="targetPoint" />
          </mxGeometry>
        </mxCell>
        <mxCell id="2nwuJbsm_z7F0_B4Owl_-448" value="" style="endArrow=none;dashed=1;html=1;rounded=0;fillColor=#d5e8d4;strokeColor=#82b366;exitX=0.125;exitY=0.875;exitDx=0;exitDy=0;exitPerimeter=0;" edge="1" parent="2nwuJbsm_z7F0_B4Owl_-427" source="2nwuJbsm_z7F0_B4Owl_-429">
          <mxGeometry width="50" height="50" relative="1" as="geometry">
            <mxPoint x="10" y="10" as="sourcePoint" />
            <mxPoint x="30" y="70" as="targetPoint" />
          </mxGeometry>
        </mxCell>
        <mxCell id="2nwuJbsm_z7F0_B4Owl_-449" value="" style="endArrow=none;dashed=1;html=1;rounded=0;fillColor=#d5e8d4;strokeColor=#82b366;" edge="1" parent="2nwuJbsm_z7F0_B4Owl_-427">
          <mxGeometry width="50" height="50" relative="1" as="geometry">
            <mxPoint x="30" y="10" as="sourcePoint" />
            <mxPoint x="50" y="10" as="targetPoint" />
          </mxGeometry>
        </mxCell>
        <mxCell id="2nwuJbsm_z7F0_B4Owl_-450" value="" style="endArrow=none;dashed=1;html=1;rounded=0;fillColor=#d5e8d4;strokeColor=#82b366;" edge="1" parent="2nwuJbsm_z7F0_B4Owl_-427">
          <mxGeometry width="50" height="50" relative="1" as="geometry">
            <mxPoint x="50" y="70" as="sourcePoint" />
            <mxPoint x="70" y="70" as="targetPoint" />
          </mxGeometry>
        </mxCell>
      </root>
    </mxGraphModel>
  </diagram>
</mxfile>
